<svg id="eL7KaFuvk2r1" xmlns="http://www.w3.org/2000/svg" xmlns:xlink="http://www.w3.org/1999/xlink"
  viewBox="0 0 76 76" shape-rendering="geometricPrecision" text-rendering="geometricPrecision"
  project-id="48ff86314dab40bea58f1b07bb019877" export-id="4f48404e780541cda0f5da59dae90df0"
  cached="false">
  <style>

    #eL7KaFuvk2r2 {
    animation: eL7KaFuvk2r2_f_p 5000ms linear infinite alternate backwards
    }

    @keyframes eL7KaFuvk2r2_f_p {
    0% {
    fill: #c4e1dd
    }

    40% {
    fill: #fab900
    }

    100% {
    fill: #fab900
    }
    }


    #eL7KaFuvk2r5-fill-0 {
    animation: eL7KaFuvk2r5-fill-0__c 5000ms linear infinite alternate backwards
    }

    @keyframes eL7KaFuvk2r5-fill-0__c {
    0% {
    stop-color: #39988b
    }

    80% {
    stop-color: #fff
    }

    100% {
    stop-color: #fff
    }
    }

    #eL7KaFuvk2r5-fill-1 {
    animation: eL7KaFuvk2r5-fill-1__c 5000ms linear infinite alternate backwards
    }

    @keyframes eL7KaFuvk2r5-fill-1__c {
    0% {
    stop-color: #13322e
    }

    80% {
    stop-color: #fff
    }

    100% {
    stop-color: #fff
    }
    }

  </style>
  <defs>
    <linearGradient id="eL7KaFuvk2r5-fill" x1="0" y1="0" x2="1" y2="0" spreadMethod="pad"
      gradientUnits="userSpaceOnUse" gradientTransform="matrix(54.3753 0 0 54.3753 14.2109 37.6848)">
      <stop id="eL7KaFuvk2r5-fill-0" offset="0%" stop-color="#39988b" />
      <stop id="eL7KaFuvk2r5-fill-1" offset="100%" stop-color="#13322e" />
    </linearGradient>
    <linearGradient id="eL7KaFuvk2r8-fill" x1="0.5" y1="0" x2="0.5" y2="1" spreadMethod="pad"
      gradientUnits="objectBoundingBox" gradientTransform="translate(0 0)">
      <stop id="eL7KaFuvk2r8-fill-0" offset="0%" stop-color="rgba(255,255,255,0)" />
      <stop id="eL7KaFuvk2r8-fill-1" offset="100%" stop-color="#010022" />
    </linearGradient>
  </defs>
  <rect id="eL7KaFuvk2r2" width="76" height="76" rx="38" ry="38" fill="#c4e1dd" />
  <g transform="translate(-.484632 0.315251)" clip-path="url(#eL7KaFuvk2r6)">
    <g>
      <path id="eL7KaFuvk2r5"
        d="M59.853,30.751l.608-1.3989c1.0689-2.4747,3.0267-4.4589,5.4868-5.561l1.8759-.8378c.2276-.1047.4204-.2725.5555-.4834.1352-.2109.207-.4562.207-.7067s-.0718-.4958-.207-.7067c-.1351-.2109-.3279-.3787-.5555-.4833l-1.7721-.7885c-2.522-1.1335-4.5132-3.191-5.5635-5.7488l-.6253-1.5101c-.0918-.2339-.252-.4347-.4596-.5763s-.4532-.2173-.7045-.2173-.4967.0757-.7044.2173-.3678.3424-.4597.5763l-.6253,1.5076c-1.0491,2.5583-3.0394,4.6167-5.5609,5.7513l-1.7746.7909c-.2269.105-.419.2727-.5536.4834-.1347.2106-.2062.4554-.2062.7054s.0715.4948.2062.7055c.1346.2106.3267.3784.5536.4834l1.8784.8353c2.4596,1.1032,4.4164,3.0883,5.4843,5.5635l.608,1.3989c.4449,1.0232,1.8611,1.0232,2.3085,0Zm-1.1543,5.6994c1.656,0,3.2452-.2719,4.7331-.7712.14,1.0628.21,2.1437.21,3.2427c0,13.6503-11.0651,24.7154-24.7154,24.7154s-24.7155-11.0651-24.7155-24.7154s11.0651-24.7154,24.7155-24.7154c2.2392,0,4.4067.2965,6.468.8551-1.1152,2.2612-1.6355,4.7695-1.5117,7.2877s.8876,4.9634,2.2194,7.1043c1.3317,2.1409,3.1872,3.907,5.3914,5.1312s4.6839,1.8664,7.2052,1.8656Zm-17.3008,0v-12.3578L29.0402,41.3934h7.4146v12.3578L48.8126,36.4504h-7.4147Z"
        fill="url(#eL7KaFuvk2r5-fill)" />
    </g>
    <clipPath id="eL7KaFuvk2r6">
      <rect width="59.3171" height="59.3171" rx="0" ry="0" transform="translate(9.26758 9.26886)"
        fill="#fff" />
    </clipPath>
  </g>

</svg>