<svg width="76" height="76" viewBox="0 0 76 76" fill="none" xmlns="http://www.w3.org/2000/svg">
<rect width="76" height="76" rx="38" fill="#C4E1DD" fill-opacity="0.3"/>
<g clip-path="url(#clip0_728_5662)">
<path d="M59.853 30.751L60.461 29.3521C61.5299 26.8774 63.4877 24.8932 65.9478 23.7911L67.8237 22.9533C68.0513 22.8486 68.2441 22.6808 68.3792 22.4699C68.5144 22.259 68.5862 22.0137 68.5862 21.7632C68.5862 21.5127 68.5144 21.2674 68.3792 21.0565C68.2441 20.8456 68.0513 20.6778 67.8237 20.5732L66.0516 19.7847C63.5296 18.6512 61.5384 16.5937 60.4881 14.0359L59.8628 12.5258C59.771 12.2919 59.6108 12.0911 59.4032 11.9495C59.1955 11.8079 58.95 11.7322 58.6987 11.7322C58.4474 11.7322 58.202 11.8079 57.9943 11.9495C57.7867 12.0911 57.6265 12.2919 57.5346 12.5258L56.9093 14.0334C55.8602 16.5917 53.8699 18.6501 51.3484 19.7847L49.5738 20.5756C49.3469 20.6806 49.1548 20.8483 49.0202 21.059C48.8855 21.2696 48.814 21.5144 48.814 21.7644C48.814 22.0144 48.8855 22.2592 49.0202 22.4699C49.1548 22.6805 49.3469 22.8483 49.5738 22.9533L51.4522 23.7886C53.9118 24.8918 55.8686 26.8769 56.9365 29.3521L57.5445 30.751C57.9894 31.7742 59.4056 31.7742 59.853 30.751ZM58.6987 36.4504C60.3547 36.4504 61.9439 36.1785 63.4318 35.6792C63.5718 36.742 63.6418 37.8229 63.6418 38.9219C63.6418 52.5722 52.5767 63.6373 38.9264 63.6373C25.276 63.6373 14.2109 52.5722 14.2109 38.9219C14.2109 25.2716 25.276 14.2065 38.9264 14.2065C41.1656 14.2065 43.3331 14.503 45.3944 15.0616C44.2792 17.3228 43.7589 19.8311 43.8827 22.3493C44.0065 24.8676 44.7703 27.3127 46.1021 29.4536C47.4338 31.5945 49.2893 33.3606 51.4935 34.5848C53.6976 35.8091 56.1774 36.4512 58.6987 36.4504ZM41.3979 36.4504V24.0926L29.0402 41.3934H36.4548V53.7512L48.8126 36.4504H41.3979Z" fill="url(#paint0_linear_728_5662)"/>
</g>
<defs>
<linearGradient id="paint0_linear_728_5662" x1="14.2109" y1="37.6848" x2="68.5862" y2="37.6848" gradientUnits="userSpaceOnUse">
<stop stop-color="#39988B"/>
<stop offset="1" stop-color="#13322E"/>
</linearGradient>
<clipPath id="clip0_728_5662">
<rect width="59.3171" height="59.3171" fill="white" transform="translate(9.26758 9.26886)"/>
</clipPath>
</defs>
</svg>
