<svg width="225" height="51" viewBox="0 0 225 51" fill="none" xmlns="http://www.w3.org/2000/svg">
<path d="M20.0269 48.9547C17.4217 50.2826 16.7851 50.426 13.0839 50.5271C7.29593 50.6873 3.41761 49.2625 1.02739 46.0966L0.226433 45.0385L2.51127 43.0108C3.7675 41.8979 5.0153 40.9789 5.28088 40.9705C5.54646 40.962 6.78162 41.43 8.021 42.0075C11.7897 43.7612 15.765 43.2132 17.5313 40.688C18.4166 39.4234 19.1964 36.9615 18.6189 37.2481C14.7153 39.2126 14.0998 39.3728 11.0941 39.1789C3.97828 38.7194 -0.45227 33.2771 0.0367344 25.6005C0.395057 20.0529 3.07615 15.8162 7.46033 13.8771C9.78311 12.8485 14.9682 12.9623 17.1898 14.0921C18.9477 14.9858 19.3398 15.0026 19.3398 14.189C19.3398 13.6705 20.0944 13.5567 23.5891 13.5567H27.8341L27.6697 26.3088C27.4842 40.6332 27.3072 41.6871 24.4954 45.3842C23.3361 46.906 22.0968 47.8966 20.0269 48.9547ZM212.505 40.5194C204.437 42.7579 197.165 36.4514 199.998 29.6686C201.502 26.0727 205.081 24.1588 210.937 23.8174C212.792 23.712 214.735 23.5349 215.258 23.4295C216.548 23.1682 216.485 21.7686 215.144 20.8918C213.652 19.9095 208.218 20.2468 205.853 21.4651C204.909 21.9499 203.956 22.2197 203.728 22.0595C203.505 21.9035 202.607 20.8918 201.734 19.8126L200.145 17.8481L201.553 16.7732C202.329 16.183 204.095 15.1755 205.474 14.5347C207.594 13.5525 208.673 13.3501 212.412 13.2152C216.164 13.0803 217.205 13.1942 219.246 13.9614C221.914 14.9689 223.503 16.5455 224.254 18.9442C224.549 19.8885 224.793 24.3949 224.874 30.2545L225 39.9925L221.16 40.2412C219.048 40.3803 217.163 40.3972 216.974 40.2791C216.784 40.1611 216.628 39.5836 216.628 38.9976V37.9311L215.351 39.006C214.647 39.6004 213.365 40.2791 212.505 40.5194ZM67.2327 39.6974C60.0073 43.3607 51.3485 38.5592 52.4108 31.477C53.0474 27.232 57.0016 24.2769 62.6125 23.8511C68.3836 23.4169 69.0834 23.2609 69.0834 22.4136C69.0834 21.9794 68.763 21.3049 68.3752 20.9171C67.3634 19.9053 61.1328 20.2637 58.7721 21.4651C57.8573 21.933 56.9088 22.2323 56.6643 22.1269C56.424 22.0258 55.5051 21.0056 54.6198 19.8632L53.0137 17.7849L55.6442 16.086C59.1684 13.8054 61.6555 13.1351 66.5245 13.1394C69.8759 13.1436 70.9213 13.3122 72.7003 14.1384C73.8764 14.6907 75.2423 15.6476 75.7313 16.2715C77.506 18.5268 77.7168 20.0149 77.721 30.3515L77.7253 40.1906H73.9313C70.4028 40.1948 70.1288 40.1358 70.0023 39.3138C69.9265 38.8248 69.8337 38.4327 69.7916 38.4327C69.7494 38.4369 68.5986 39.006 67.2327 39.6974ZM90.6755 32.6321L90.4689 40.1147H82.1516V13.5567H90.5279L90.7935 16.1282L92.2521 15.049C94.1575 13.6368 96.0545 13.1394 99.5534 13.1394C102.825 13.1351 104.637 13.7759 106.269 15.5127C108.436 17.8228 108.71 19.4711 108.71 30.263V40.1147H100.278V32.0925C100.278 23.5602 99.937 21.6674 98.2339 20.7569C96.8428 20.0107 94.5917 20.2215 93.327 21.2164C91.2825 22.8267 90.8989 24.4623 90.6755 32.6321ZM152.176 40.1189C148.787 40.1189 144.786 40.1864 143.277 40.2665C141.768 40.3466 138.973 40.3381 137.059 40.2496L133.581 40.081V34.5628L139.694 27.6704C143.054 23.8806 145.807 20.6726 145.807 20.5419C145.807 20.407 143.151 20.3016 139.905 20.3016H134.003V13.5567H158.032V18.2191L151.603 25.4151C148.066 29.3693 145.111 32.7796 145.035 32.9904C144.955 33.2054 147.826 33.3698 151.696 33.3698H158.495L158.415 36.7423L158.335 40.1147L152.176 40.1189ZM129.682 40.0683C128.565 40.4857 124.286 40.9747 123.675 40.7555C123.443 40.6754 122.537 40.4857 121.664 40.3381C119.767 40.022 117.242 37.9353 116.445 36.0256C116.045 35.0603 115.876 32.5562 115.876 27.4807V20.3016H112.082V13.6031L113.874 13.4766L115.665 13.3459L115.91 5.96869H124.273L124.518 13.3459L127.574 13.4682L130.631 13.5946V20.3016H124.307V25.571C124.307 31.9998 124.611 32.5267 128.312 32.5267H130.631V36.1184C130.631 39.4613 130.563 39.7395 129.682 40.0683ZM196.182 4.28247V40.0641L192.034 40.1948C189.754 40.2665 187.81 40.2454 187.713 40.1484C187.621 40.0515 187.541 31.945 187.541 22.1269V4.28247H191.862H196.182ZM40.915 33.1886L40.7843 40.1147H32.408V13.5567H40.8391V18.8177L41.9267 17.2917C43.1998 15.4959 46.273 13.7085 48.7686 13.308L50.5349 13.0255V21.4567L48.0435 21.7391C45.3498 22.0426 43.3853 23.1176 41.931 25.0736C41.1342 26.1444 41.0373 26.9411 40.915 33.1886ZM182.903 4.28247V40.1147H174.472V4.28247H182.903ZM170.493 26.8357L170.468 40.1147H161.826V13.5567H170.518L170.493 26.8357ZM12.3504 31.4307C15.0399 32.3665 17.2868 31.4012 18.3491 28.8507C19.4241 26.2877 18.9182 23.1597 17.1308 21.2501C16.4268 20.4955 15.7818 20.3016 14.0029 20.3016C12.1396 20.3016 11.541 20.4997 10.4197 21.503C9.24773 22.5527 9.04959 23.0333 8.8894 25.276C8.73343 27.3922 8.86411 28.1046 9.63134 29.3398C10.1372 30.166 10.5883 30.8447 10.6262 30.8489C10.6641 30.8489 11.444 31.1103 12.3504 31.4307ZM61.8115 33.3361C63.0635 34.0654 66.2252 33.8588 67.7133 32.9525C68.8937 32.2316 69.0834 31.8817 69.0834 30.4189C69.0834 28.876 68.9948 28.7369 68.1349 28.9098C67.6121 29.0152 66.1114 29.2091 64.8004 29.3398C63.4851 29.4662 62.1108 29.6896 61.7441 29.833C60.7998 30.1913 60.8504 32.7754 61.8115 33.3361ZM209.883 33.6523C211.595 34.2256 212.918 34.0106 214.836 32.8597C215.97 32.1768 216.206 31.7763 216.206 30.5412V29.0447L212.859 29.2386C209.002 29.462 208.096 29.9805 208.281 31.8564C208.387 32.923 208.673 33.2476 209.883 33.6523Z" fill="#0B251A"/>
<path d="M170.067 9.57302C167.293 12.3426 161.628 8.86059 161.084 4.05063C160.907 2.45715 161.029 1.96815 161.843 1.10396C163.36 -0.5106 165.835 -0.341978 168.018 1.52973C171.113 4.1771 171.994 7.64229 170.067 9.57302Z" fill="#39988B"/>
</svg>
