<?xml version="1.0" encoding="UTF-8" standalone="no"?>
<svg
   version="1.0"
   width="1024pt"
   height="1024pt"
   viewBox="0 0 1024 1024"
   preserveAspectRatio="xMidYMid"
   id="svg15"
   xmlns="http://www.w3.org/2000/svg"
   xmlns:svg="http://www.w3.org/2000/svg">
  <defs
     id="defs15" />
  <metadata
     id="metadata1">
Created by potrace 1.16, written by Peter Selinger 2001-2019
</metadata>
  <path
     id="path37"
     style="color:#000000;font-style:normal;font-variant:normal;font-weight:normal;font-stretch:normal;font-size:medium;line-height:normal;font-family:sans-serif;font-variant-ligatures:normal;font-variant-position:normal;font-variant-caps:normal;font-variant-numeric:normal;font-variant-alternates:normal;font-variant-east-asian:normal;font-feature-settings:normal;font-variation-settings:normal;text-indent:0;text-align:start;text-decoration-line:none;text-decoration-style:solid;text-decoration-color:#000000;letter-spacing:normal;word-spacing:normal;text-transform:none;writing-mode:lr-tb;direction:ltr;text-orientation:mixed;dominant-baseline:auto;baseline-shift:baseline;text-anchor:start;white-space:normal;shape-padding:0;shape-margin:0;inline-size:0;clip-rule:nonzero;display:inline;overflow:visible;visibility:visible;isolation:auto;mix-blend-mode:normal;color-interpolation:sRGB;color-interpolation-filters:linearRGB;solid-color:#000000;solid-opacity:1;vector-effect:none;fill:#000000;fill-opacity:1;fill-rule:nonzero;stroke:none;stroke-linecap:butt;stroke-linejoin:miter;stroke-miterlimit:4;stroke-dasharray:none;stroke-dashoffset:0;stroke-opacity:1;-inkscape-stroke:none;color-rendering:auto;image-rendering:auto;shape-rendering:auto;text-rendering:auto;enable-background:accumulate;stop-color:#000000;stop-opacity:1"
     d="m 518.91211,142.8999 c -2.9875,-0.05 -5.66201,0.84971 -7.81201,2.69971 -3.5,2.9 -3.8,5.40098 -1.5,11.00098 2.9,6.9 3.5999,17.29912 1.8999,26.09912 -1.5,7.4 -7.70029,22.30078 -9.30029,22.30078 -0.4,0 -1.79961,-2.4002 -3.09961,-5.2002 -6.6,-14.5 -26.00059,-26.10029 -38.10059,-22.80029 -4.4,1.2 -6.5,3.40068 -7.5,7.70068 -0.7,3.6 0.70098,5.39971 9.50098,11.69971 4.5,3.2 9,9.59981 9,12.79981 0,1.8 0.2,1.7998 -15,3.7998 -38.8,5.1 -84.60098,25.09941 -116.00098,50.39941 -23,18.6 -46.0999,47.00098 -58.8999,72.50098 -5.5,10.9 -13.1001,29.49951 -13.1001,31.99951 0,3 -1.89931,3.60078 -4.29931,1.30078 -2.9,-2.6 -12.69971,-7.50117 -20.69971,-10.20117 -9.1,-3.1 -27.60088,-3.89961 -38.40088,-1.59961 -11.3,2.3 -26.2999,9.89971 -34.8999,17.69971 -22.1,20 -32.29971,47.60088 -29.69971,80.40088 1.6,19.6 8.30059,37.9001 20.10059,55.1001 4.6,6.6 18.29921,20.69941 25.69921,26.39941 3.3,2.5 3.3003,2.5 1.8003,13.5 -0.9,6 -1.6999,18.39951 -1.8999,27.49951 -0.3,16.5 -0.29991,16.5 -6.39991,25.5 -30.6,45.7 -45.2999,91.30108 -45.3999,141.10108 0,13.5 0.4001,18.1999 2.6001,28.8999 4.7,23.2 12.5001,39.79941 25.1001,53.39941 8.8,9.4 15.19892,14.00049 26.89892,19.00049 13.5,5.7 23.80088,7.39981 41.40088,6.79981 16.8,-0.6 28.69893,-2.90079 46.39893,-8.80079 19.3,-6.6 38.40097,-15.8 65.00097,-31.5 13.2,-7.8 13.99971,-7.99951 11.69971,-1.99951 -1.9,5.2 -7.00049,39.79961 -7.00049,48.09961 0,4.6 0.4001,5.60039 2.6001,7.40039 2.7,2.1 2.70098,2.10059 161.00098,2.10059 158.3,0 158.29912,-8.8e-4 161.09912,-2.40088 2.7,-2.3 2.80049,-2.79981 2.50049,-9.79981 -0.4,-12.1 -4.19981,-38.30009 -6.79981,-47.60009 -0.9,-3.2 0.79893,-2.80039 7.39893,1.59961 17.6,11.9 49.80117,27.40019 73.20117,35.20019 18.7,6.2 26.49902,7.40039 47.49902,7.40039 17.8,0 19.60049,-0.19931 28.00049,-2.79931 14.5,-4.4 23.49941,-9.80059 33.89941,-20.10059 18.6,-18.4 28.60069,-44.6 30.20069,-79.5 2.2,-46 -15.09951,-101.39951 -45.49951,-145.99951 -6.5,-9.5 -6.50069,-9.5001 -6.20069,-16.1001 0.3,-7.5 -1.69931,-38.30049 -2.79931,-44.50049 -0.8,-4.1 -0.80079,-4.09951 6.19921,-9.49951 21.3,-16.6 37.60079,-44.2999 41.80079,-70.8999 1.8,-11.8 0.59951,-32.50069 -2.50049,-43.70069 -2.6,-9.4 -8.59961,-22.49931 -13.59961,-29.79931 -7.4,-10.7 -20.90078,-21.90069 -32.80078,-27.20069 -23.3,-10.3 -53.49922,-7.9999 -73.69922,5.6001 -2.5,1.7 -4.70098,2.6002 -5.00098,2.2002 -0.2,-0.5 -1.89912,-4.9002 -3.59912,-9.7002 -19.1,-54.2 -59.40029,-98.49941 -114.30029,-125.39941 -22.2,-10.9 -50.69942,-19.6002 -75.89942,-23.2002 -8.8,-1.2 -8.80097,-1.20029 -8.00097,-7.80029 3.1,-24.8 -6.39912,-48.5001 -23.09912,-58.1001 -3.4,-1.95 -6.70098,-2.95 -9.68848,-3 z m 93.11426,184.04444 c 4.44843,0.0625 8.62392,0.40615 12.27392,1.05615 20.6,3.6 39.80039,13.99892 55.40039,29.89892 7.6,7.8 9.59961,10.10108 9.09961,10.60108 -0.3,0.4 -4.5999,-0.2001 -9.3999,-1.1001 -13.9,-2.8 -40.09971,-2.50049 -52.19971,0.49951 -30.5,7.5 -53.50068,23.2002 -64.70068,44.2002 -5,9.4 -5.00049,9.40019 -10.00049,9.70019 -5,0.3 -4.99931,0.3003 -10.29931,-5.6997 -12.8,-14.6 -33.50059,-18.10039 -51.60059,-8.90039 -2.2,1.1 -6.99922,5.10039 -10.69922,8.90039 -3.9,4 -7.60078,6.89941 -8.80078,6.89941 -3.3,0 -7.09922,-1.9002 -7.69922,-3.7002 -0.3,-1 -2.2001,-5.0996 -4.1001,-9.0996 -8.3,-16.8 -34.10039,-34.60059 -59.90039,-41.10059 -20.5,-5.2 -48.19961,-5.0001 -66.09961,0.3999 -3.9,1.2 -2.60097,-0.99922 5.49903,-9.19922 16.5,-16.8 34.80107,-27.10078 55.60107,-31.30078 11.5,-2.3 28.3002,-2.4999 38.2002,-0.3999 16.7,3.4 33.3999,11.00029 46.8999,21.30029 6.9,5.2 22.3001,20.2999 28.1001,27.3999 3.9,4.9 3.89892,4.89971 10.39892,-3.30029 14,-17.9 35.20088,-33.99922 53.40088,-40.69922 11.475,-4.2 27.28066,-6.54345 40.62598,-6.35595 z m -240.17725,63.30761 c 5.29321,-0.0271 14.33906,1.0293 21.35156,2.74805 14.5,3.6 30.39873,12.79932 38.19873,22.29932 3.8,4.7 9.60059,15.60068 9.60059,18.20068 0,2.3 -1.60029,1.79971 -6.30029,-1.80029 -6.2,-4.7 -21.40039,-12.39961 -29.90039,-15.09961 -8.7,-2.7 -17.69952,-4.50049 -28.99952,-5.50049 -0.5,-0.1 -0.7998,-0.99912 -0.7998,-2.09912 0,-3.1 -3.69961,-12.1001 -6.09961,-14.6001 -1.2,-1.2 -1.80039,-2.7999 -1.40039,-3.3999 0.3125,-0.5 1.94312,-0.73621 4.34912,-0.74854 z m 278.58692,0.78223 c 3.2291,-0.0451 5.56347,0.0908 5.56347,0.46582 0,0.3 -1.00019,1.89951 -2.20019,3.49951 -1.2,1.6 -3.09932,6.0002 -4.29932,9.7002 -2.2,6.8 -2.19961,6.8 -10.59961,7.5 -16.1,1.4 -37.50098,9.3998 -50.00098,18.7998 -2.9,2.2 -5.69961,4.00049 -6.09961,4.00049 -1.4,0 -0.80039,-3.40049 1.59961,-8.50049 7.6,-16.2 25.8001,-28.89902 49.1001,-33.99902 3.6875,-0.8125 11.55469,-1.39111 16.93653,-1.46631 z m 152.04345,2.07129 c 9.90269,0.13938 19.00762,4.28154 27.12012,12.39404 10.6,10.5 15.40098,23 15.50098,40.5 0,12.3 -1.80098,21.00117 -6.50098,31.20117 -3.7,8.3 -11.09941,19.29932 -12.89941,19.29932 -0.6,0 -1.5003,-2 -1.8003,-4.5 -1.6,-11.1 -12.89951,-37.89951 -22.99951,-54.49951 -5.7,-9.5 -13.40078,-19.6002 -20.80078,-27.7002 -3.3,-3.6 -6.09961,-6.80009 -6.09961,-7.10009 0,-1.1 8.00049,-5.20079 14.50049,-7.30079 4.8125,-1.59375 9.47778,-2.3573 13.979,-2.29394 z m -581.10644,0.29443 c 1.08906,-0.006 2.15244,0.0246 3.12744,0.0996 5.7,0.3 8.49883,1.20108 15.29883,4.60108 4.5,2.3 8.20019,4.39882 8.20019,4.79882 0,0.3 -3.09941,3.89991 -6.89941,7.89991 -17.6,18.5 -36.29961,54.20088 -42.09961,80.40088 -0.7,3.2 -1.60098,5.79931 -2.00098,5.79931 -1.2,0 -9.89902,-13.50019 -12.99902,-20.20019 -4.7,-10.1 -6.30069,-17.89981 -6.20069,-30.79981 0,-9.5 0.4001,-12.9 2.6001,-19.5 5.4,-17.1 16.50059,-28.20019 32.10059,-32.20019 2.1,-0.525 5.60537,-0.88067 8.87256,-0.89942 z m 485.41699,3.58594 c 10.87988,0.4043 22.81055,2.88867 31.81055,7.01367 28.8,13 54.79882,51.0002 66.29882,96.7002 8.6,34 12.5,75.40029 9,94.80029 -3,16.9 -13.19921,32.5001 -27.19921,41.6001 -8.6,5.6 -16.60079,8.0001 -28.30079,8.6001 -12.2,0.7 -21.29941,-0.8003 -30.89941,-4.8003 -7.7,-3.2 -22.5,-12.70049 -22.5,-14.50049 0,-0.6 1.2001,-1.59873 2.6001,-2.19873 6.1,-2.9 17.39941,-11.10029 24.89941,-18.30029 36.4,-34.9 45.3999,-87.30107 22.8999,-132.10107 -14.4,-28.7 -41.90009,-50.79883 -73.10009,-58.79883 -5.4,-1.3 -6.89981,-3.8001 -5.29981,-8.6001 1.3,-3.8 4.10069,-5.70029 12.20069,-7.80029 4.9125,-1.35 11.06191,-1.85684 17.58984,-1.61426 z m -397.76514,0.40137 c 3.075,-0.0375 6.97461,-0.0368 10.97461,0.0132 15.7,0.3 22.60088,2.0999 24.90088,6.3999 2.8,5.2 0.10029,10.69932 -5.69971,11.79932 -4,0.8 -17.70136,6.10098 -24.40136,9.50098 -13.8,7.1 -29.8,20.89941 -39,33.89941 -5.6,7.9 -12.79873,22.20049 -15.69873,31.00049 -3.9,12 -5.10059,19.99922 -5.10059,34.69922 0,26 5.9001,45.00039 20.6001,65.90039 8.1,11.5 24.90058,26.59931 36.60058,32.79931 2.3,1.2 4.3,2.60108 4.5,3.10108 0.4,1.3 -10.60117,8.69941 -19.20117,12.89941 -10.8,5.2 -19.50019,6.8999 -32.20019,6.3999 -17.9,-0.8 -31.89922,-7.40029 -42.19922,-19.80029 -10.9,-13 -14.00078,-22.79951 -14.80078,-45.49951 -1.3,-39.6 9.3,-92.70049 24,-121.00049 18.9,-36.1 41.80068,-56.0999 70.70068,-61.8999 0.7,-0.1 2.9499,-0.1749 6.0249,-0.2124 z m 345.78076,44.10498 c 25.86172,0.57558 50.91993,13.29599 65.79493,34.20849 5.5,7.7 10.7,18.49981 13.5,27.79981 5.7,19.6 2.09882,45.89912 -8.70118,63.59912 -16.6,27.5 -45.3,42.0998 -78,39.7998 -13.4,-0.9 -20.99941,-2.9997 -32.39941,-8.6997 -8.1,-4 -10.99961,-6.19932 -19.59961,-14.79932 -8.8,-8.7 -10.80078,-11.4 -14.80078,-19.5 -6.7,-13.7 -8.8,-22.60088 -9,-38.40088 -0.1,-15.2 1.60039,-23.5 7.40039,-36 12.1,-26.3 36.40068,-44.09902 64.70068,-47.49902 3.7,-0.425 7.41045,-0.59053 11.10498,-0.5083 z m -288.91845,0.063 c 12.5625,-0.0797 25.9122,2.69531 37.0122,7.94531 22.8,10.9 38.90069,30.59892 45.20069,55.39892 2.9,11.5 2.2999,32.80108 -1.1001,43.60108 -7.5,23.3 -22.9002,41.19892 -44.2002,50.89892 -35.2,16.2 -77.8997,6.1003 -100.1997,-23.6997 -11.6,-15.6 -16.59961,-30.59942 -16.59961,-50.39942 0,-25.4 7.39951,-43.6998 24.49951,-60.7998 11.8,-11.6 25.99971,-18.80088 43.19971,-21.90088 3.9,-0.675 8,-1.01787 12.1875,-1.04443 z m 284.92675,21.54345 c -3.86484,0.0439 -7.52607,0.33838 -10.41357,0.90088 -20.2,4 -37.30078,19.60098 -44.80078,41.00098 -2.7,7.6 -2.99893,9.69951 -2.89893,19.99951 0,18.7 5.19991,31.1002 18.39991,44.2002 11.5,11.5 22.69961,16.50048 39.09961,17.50048 11.7,0.7 19.6998,-0.70058 29.2998,-5.10058 23.3,-10.9 37.00049,-31.99961 37.00049,-57.09961 0,-11.2 -1.30108,-17.00049 -6.10108,-26.50049 -4.1,-8.2 -8.29941,-13.59951 -15.89941,-19.99951 -7.5,-6.4 -15.49932,-10.6001 -25.29932,-13.1001 -4.9375,-1.25 -11.94531,-1.875 -18.38672,-1.80176 z m -286.40185,0.16114 c -5.14219,0.0932 -9.97529,0.62812 -13.61279,1.64062 -7.1,2 -17.69942,7.29893 -23.39942,11.89893 -8.5,6.7 -17.19951,21.10039 -19.99951,32.90039 -2.5,10.6 -1.50088,27.6998 2.09912,36.7998 3.7,9.1 8.30108,16.10108 15.10108,22.60108 25.1,24.5 63.79892,23.89921 88.39892,-1.30079 18,-18.4 22.90059,-44.99931 12.60059,-67.29931 -7.8,-16.7 -20.60049,-28.50117 -37.00049,-34.20117 -6.1875,-2.125 -15.61719,-3.19483 -24.1875,-3.03955 z m 277.5791,14.28515 c 5.67188,0.005 9.68438,2.55498 11.10938,7.35498 2.2,7.3 -3.20049,15.99981 -14.50049,23.29981 -5.2,3.3 -6.70078,3.7998 -11.80078,3.7998 -5.3,0 -6.3,-0.3 -9,-3 -2.8,-2.8 -2.99981,-3.39883 -2.29981,-7.79883 1.6,-10.6 10.09981,-20.10029 20.29981,-22.80029 2.225,-0.575 4.30127,-0.85703 6.19189,-0.85547 z M 354.92578,477.917 c 3.00029,-0.0485 5.73721,0.50186 7.57471,1.68311 3.2,2.1 4.69912,6.89931 3.59912,11.79931 -2.4,10.1 -19.60029,22.80108 -28.80029,21.10108 -4.4,-0.8 -9.29883,-5.40117 -9.29883,-8.70117 0,-7.9 6.6999,-17.89883 15.3999,-22.79883 3.375,-1.96875 7.66787,-3.0211 11.52539,-3.0835 z m 158.96338,19.812 c 10.39219,0.72657 20.01123,5.77032 24.51123,13.57032 2.1,3.7 2.39893,5.80019 2.89893,18.70019 0.5,13.5 1.50048,19.20049 5.50048,32.50049 2,6.6 8.39961,18.89941 13.59961,26.39941 7.8,11 13.60098,17.20098 23.00098,24.50098 22.7,17.6 44.59961,24.99951 72.09961,24.49951 8.4,-0.2 13.99951,0.10059 13.99951,0.60059 -0.3,13.1 -4.59912,33.39931 -9.59912,44.79931 -27.4,62.3 -109.0999,97.00049 -189.3999,80.50049 -45.1,-9.2 -86.20088,-37.8998 -104.40088,-72.7998 -7.3,-13.9 -11.70029,-30.50039 -12.30029,-46.40039 -0.3,-6.9 -0.29981,-6.9002 12.70019,-6.7002 14.7,0.2 23.50108,-1.10039 37.60108,-5.90039 28.8,-9.6 52.7999,-30.8 66.3999,-58.5 7.9,-15.9 11.39902,-31.59902 11.49902,-50.49902 0,-7.6 0.30117,-9.00098 2.70117,-12.50098 4.8,-7.1 9.19873,-9.9 18.69873,-12 3.475,-0.775 7.02569,-1.01269 10.48975,-0.77051 z m 22.76074,80.3584 c -1.775,0.0625 -3.69941,0.66201 -6.14941,1.81201 -9.5,4.3 -14.20098,16.10079 -9.50098,23.80079 1.8,3 2.50098,3.30029 6.50098,3.30029 5.4,0 8.79971,-1.60069 13.19971,-6.20069 3.8,-3.9 5.2998,-7.5998 5.2998,-12.7998 0,-5.2 -0.8001,-6.80049 -4.1001,-8.50049 -1.85,-1 -3.475,-1.47461 -5.25,-1.41211 z m -50.7876,0.0381 c -1.3125,0.05 -2.41201,0.5251 -4.06201,1.4751 -3,1.6 -5.80078,6.0999 -5.80078,9.3999 0,5.4 5.5002,13.59961 11.2002,16.59961 4.3,2.3 11.09961,1.80058 13.59961,-0.89942 6.6,-7 0.80088,-22.4 -9.59912,-25.5 -2.5,-0.75 -4.0254,-1.12519 -5.3379,-1.07519 z m -58.15283,73.95264 c -3.23437,0.007 -6.23388,1.52197 -8.60888,4.52197 -2.5,3.1 -2.70059,7.1 -0.60059,12 7.3,17.6 35.30039,35.30029 64.40039,40.80029 18.1,3.5 44.39961,2.99912 61.59961,-0.90088 28.2,-6.6 51.90068,-22.39931 60.20068,-40.29931 2.1,-4.5 2.29932,-5.7001 1.29932,-8.6001 -1.8,-5.6 -8.5001,-8.60059 -14.6001,-6.60059 -2.4,0.8 -5.2,3.40059 -9,8.10059 -12.1,15.2 -27.70039,23.39951 -52.40039,27.49951 -8.1,1.3 -13.29902,1.50049 -23.49902,1.00049 -30.7,-1.5 -52.80098,-10.99942 -65.00098,-27.89942 -2.5,-3.4 -5.99883,-7.00097 -7.79883,-8.00097 -2.025,-1.0875 -4.05058,-1.62569 -5.99121,-1.62158 z m 288.81592,15.04541 c 0.85911,-0.0859 2.86201,0.72607 9.87451,3.47607 10.4,4.2 8.9002,0.50039 15.7002,38.90039 1.6,9.3 3.40049,18.10039 4.00049,19.40039 0.5,1.3 0.59921,2.79922 0.19921,3.19922 -0.4,0.4 -6.09951,-2.69941 -12.49951,-6.89941 -18.5,-12.1 -32.00049,-20.59991 -34.00049,-21.39991 -1,-0.4 -1.80029,-0.9997 -1.80029,-1.1997 0,-0.3 2,-3.40049 4.5,-7.00049 5.1,-7.2 12.50098,-22.30078 12.50098,-25.30078 0,-1.1 0.30019,-2.29864 0.70019,-2.59864 0.28125,-0.3125 0.43421,-0.53808 0.82471,-0.57714 z m -411.12598,0.27685 c 0.5,0.1 1.8,2.89922 3,6.19922 2.7,7.3 8.7002,18.6001 12.7002,23.6001 3.4,4.3 3.59971,5.40068 1.19971,6.20068 -2.1,0.7 -33.69903,20.8 -39.99903,25.5 -5.1,3.7 -6.80078,3.99981 -5.80078,0.79981 0.4,-1.2 1.30098,-5.6002 2.00098,-9.7002 3.3,-18.8 8.59961,-45.39941 9.09961,-45.89941 0.3,-0.3 4.1997,-2.0002 8.6997,-3.7002 4.5,-1.8 8.59961,-3.1 9.09961,-3 z" />
</svg>
