<?xml version="1.0" standalone="no"?>
<!DOCTYPE svg PUBLIC "-//W3C//DTD SVG 20010904//EN"
 "http://www.w3.org/TR/2001/REC-SVG-20010904/DTD/svg10.dtd">
<svg version="1.0" xmlns="http://www.w3.org/2000/svg"
 width="1024.000000pt" height="1024.000000pt" viewBox="0 0 1024.000000 1024.000000"
 preserveAspectRatio="xMidYMid meet">
<metadata>
Created by potrace 1.16, written by Peter Selinger 2001-2019
</metadata>
<g transform="translate(0.000000,1024.000000) scale(0.100000,-0.100000)"
fill="#000000" stroke="none">
<path d="M3945 8641 c-182 -54 -420 -183 -575 -311 -36 -30 -114 -102 -175
-161 -110 -106 -110 -106 -225 -144 -317 -104 -514 -209 -722 -384 -287 -241
-495 -552 -617 -923 -24 -71 -33 -78 -67 -53 -40 27 -174 66 -252 72 -206 16
-461 -93 -624 -265 -83 -88 -120 -143 -169 -247 -197 -421 -77 -976 291 -1346
176 -177 356 -275 619 -334 57 -13 105 -26 107 -28 2 -2 8 -57 14 -123 17
-197 56 -331 146 -505 56 -109 138 -226 228 -325 36 -40 66 -77 66 -83 0 -6
-33 -27 -72 -47 -184 -92 -400 -275 -534 -454 -114 -151 -208 -364 -248 -561
-21 -105 -39 -350 -31 -426 7 -69 33 -112 70 -115 11 0 890 0 1953 0 1932 2
1932 2 1970 36 37 34 37 34 42 282 5 248 5 248 98 261 452 60 951 347 1434
821 112 111 118 109 98 -21 -26 -168 -86 -329 -171 -454 -18 -26 -70 -96 -116
-155 -46 -59 -90 -123 -98 -143 -31 -73 -10 -169 51 -228 74 -74 135 -81 596
-73 254 5 373 4 386 -3 11 -6 23 -25 27 -43 14 -67 76 -178 129 -233 103 -105
266 -159 407 -136 194 32 336 153 399 341 12 36 27 68 33 72 7 4 197 8 423 8
466 0 484 2 558 70 62 58 84 149 52 223 -7 18 -55 86 -105 152 -96 126 -184
284 -219 395 -34 106 -51 223 -62 430 -17 316 -41 430 -133 623 -44 94 -49
110 -35 118 8 5 43 29 77 55 112 84 202 219 231 343 19 80 8 200 -24 264 -23
48 -109 147 -127 147 -4 0 -7 51 -6 113 2 167 -35 261 -140 357 -67 62 -109
84 -199 106 -65 16 -74 22 -150 98 -93 92 -178 147 -279 179 -58 18 -93 22
-205 22 -125 0 -141 -3 -222 -31 -227 -81 -436 -278 -548 -517 -84 -179 -117
-357 -105 -573 6 -131 6 -131 -82 -200 -118 -91 -415 -341 -642 -539 -101 -88
-247 -211 -325 -273 -166 -134 -420 -307 -436 -297 -7 4 19 38 65 86 216 226
354 545 372 857 6 94 8 103 27 107 196 38 333 83 449 148 526 295 784 980 570
1516 -46 115 -103 201 -198 296 -241 240 -554 316 -817 198 -32 -14 -61 -23
-64 -20 -3 3 -25 52 -48 110 -154 377 -406 719 -677 919 -248 184 -607 343
-859 380 -41 6 -78 14 -83 18 -4 4 7 24 24 46 90 111 111 177 67 208 -44 31
-136 18 -336 -51 -57 -19 -110 -32 -118 -29 -22 8 -17 32 28 140 53 129 57
195 15 232 -34 29 -93 31 -182 5z m976 -1556 c398 -69 668 -310 764 -679 70
-270 55 -530 -44 -768 -43 -103 -118 -213 -207 -305 -64 -66 -74 -81 -69 -102
4 -14 42 -75 84 -136 182 -257 251 -442 251 -673 0 -378 -264 -723 -721 -941
-220 -105 -491 -183 -744 -212 -148 -18 -561 -18 -695 0 -513 66 -899 231
-1192 510 -202 191 -296 377 -314 619 -11 154 27 317 112 471 41 75 162 245
241 338 29 34 53 64 53 66 0 3 -30 35 -66 73 -158 165 -259 365 -294 584 -14
90 -12 270 4 360 44 246 178 484 342 609 88 66 227 135 329 163 69 19 107 22
265 22 160 0 196 -2 266 -22 155 -42 293 -112 419 -212 74 -59 169 -159 190
-201 23 -44 47 -37 90 29 49 73 173 197 250 249 217 146 450 200 686 158z
m-3513 -759 c29 -15 81 -55 116 -89 64 -62 64 -62 53 -219 -11 -158 -11 -158
-37 -158 -74 0 -168 -61 -196 -127 -20 -46 -17 -120 6 -196 31 -99 107 -208
235 -334 114 -111 114 -111 63 -212 -57 -112 -58 -113 -157 -90 -276 63 -534
291 -631 558 -119 324 -57 643 154 798 140 103 279 127 394 69z m5131 15 c172
-53 314 -218 347 -401 62 -347 -95 -705 -399 -912 -111 -76 -274 -138 -360
-138 -33 0 -35 2 -83 98 -26 53 -50 100 -52 104 -2 3 14 21 35 40 174 152 270
270 313 385 67 177 14 295 -150 338 -35 9 -44 16 -42 31 1 10 5 87 8 169 6
150 6 150 43 188 20 21 56 50 79 64 96 57 161 65 261 34z m1672 -768 c35 -16
79 -42 97 -58 72 -61 103 -174 83 -304 -23 -144 -76 -261 -162 -355 -65 -71
-124 -100 -184 -91 -95 14 -145 90 -154 232 -6 83 -9 95 -33 120 -23 22 -38
28 -91 31 -60 4 -66 2 -100 -28 -21 -18 -41 -47 -47 -68 -15 -54 -12 -162 6
-249 8 -41 12 -79 7 -84 -12 -12 -101 -34 -108 -27 -10 10 -34 160 -35 216 0
124 51 284 130 406 164 252 393 352 591 259z m513 -315 c45 -60 61 -116 61
-214 0 -84 -3 -95 -38 -166 -40 -82 -125 -171 -197 -208 -41 -21 -80 -26 -80
-11 0 5 27 64 60 132 67 141 104 258 121 386 6 48 13 94 15 101 6 22 32 13 58
-20z m202 -600 c-8 -47 -28 -89 -68 -140 -31 -40 -112 -98 -136 -98 -18 0 -52
29 -52 44 0 6 31 35 70 64 38 30 93 83 121 118 28 35 55 61 61 58 6 -4 8 -23
4 -46z m-786 -298 c153 -43 312 -143 395 -247 56 -71 140 -236 160 -318 8 -33
20 -136 25 -230 20 -351 33 -449 77 -589 32 -103 103 -250 166 -344 27 -40 48
-75 46 -76 -9 -8 -2189 -14 -2194 -6 -3 5 19 42 48 83 66 91 136 227 170 327
49 145 71 289 87 582 12 212 30 298 85 410 110 226 304 373 560 424 97 19 278
11 375 -16z"/>
<path d="M2973 6277 c-174 -64 -281 -311 -229 -531 62 -261 269 -393 464 -295
252 125 294 562 74 760 -27 24 -71 52 -98 62 -56 20 -162 22 -211 4z"/>
<path d="M4644 6269 c-145 -55 -255 -260 -240 -449 12 -171 98 -315 226 -382
67 -35 185 -32 258 5 288 149 282 670 -10 816 -74 38 -154 41 -234 10z"/>
<path d="M3615 5344 c-88 -46 -121 -136 -76 -210 43 -70 224 -119 299 -80 63
33 70 101 19 186 -60 102 -163 146 -242 104z"/>
<path d="M4155 5343 c-115 -60 -172 -199 -111 -270 23 -27 29 -28 108 -28 73
0 89 4 138 30 70 39 104 86 97 138 -15 109 -139 179 -232 130z"/>
<path d="M2765 4746 c-70 -30 -117 -127 -96 -196 16 -55 282 -322 391 -392
306 -200 661 -286 1018 -247 336 36 640 160 853 347 31 27 72 58 91 70 116 72
45 272 -96 272 -52 0 -87 -21 -141 -85 -129 -151 -355 -265 -610 -310 -131
-23 -367 -24 -490 -2 -291 52 -580 224 -695 412 -84 137 -139 169 -225 131z"/>
</g>
</svg>
