<svg width="130" height="130" viewBox="0 0 130 130" fill="none" xmlns="http://www.w3.org/2000/svg">
<path d="M26.6988 88.7168C16.8946 91.658 10.8334 95.7205 10.8334 100.208C10.8334 109.184 35.0838 116.458 65 116.458C94.9163 116.458 119.167 109.184 119.167 100.208C119.167 95.7205 113.103 91.658 103.301 88.7168" stroke="#FAB900" stroke-opacity="0.45" stroke-width="2" stroke-linecap="round" stroke-linejoin="round"/>
<path d="M65.0001 94.7916C65.0001 94.7916 100.208 71.7816 100.208 45.1803C100.208 26.2112 84.4459 10.8333 65.0001 10.8333C45.5542 10.8333 29.7917 26.2112 29.7917 45.1803C29.7917 71.7816 65.0001 94.7916 65.0001 94.7916Z" stroke="#FAB900" stroke-opacity="0.45" stroke-width="2" stroke-linejoin="round"/>
<path d="M65 59.5833C68.5915 59.5833 72.0359 58.1566 74.5754 55.6171C77.115 53.0775 78.5417 49.6331 78.5417 46.0417C78.5417 42.4502 77.115 39.0058 74.5754 36.4663C72.0359 33.9267 68.5915 32.5 65 32.5C61.4086 32.5 57.9642 33.9267 55.4246 36.4663C52.8851 39.0058 51.4584 42.4502 51.4584 46.0417C51.4584 49.6331 52.8851 53.0775 55.4246 55.6171C57.9642 58.1566 61.4086 59.5833 65 59.5833Z" stroke="#FAB900" stroke-opacity="0.45" stroke-width="2" stroke-linejoin="round"/>
</svg>
