<svg width="130" height="130" viewBox="0 0 130 130" fill="none" xmlns="http://www.w3.org/2000/svg">
<path d="M117.256 13.6626C117.213 13.4542 117.111 13.2625 116.963 13.11C116.815 12.9575 116.626 12.8506 116.419 12.8018C102.611 9.42489 70.7154 21.4575 53.4168 38.7434C50.3339 41.8012 47.5227 45.1213 45.015 48.6661C39.683 48.1837 34.351 48.5899 29.8111 50.5704C16.9914 56.2071 13.2615 70.9286 12.2205 77.2483C12.1641 77.5946 12.1882 77.9492 12.2909 78.2847C12.3936 78.6202 12.5722 78.9275 12.8128 79.1829C13.0535 79.4382 13.3496 79.6347 13.6784 79.7572C14.0072 79.8796 14.3598 79.9247 14.7088 79.889L35.293 77.6292C35.3071 79.1818 35.4003 80.7326 35.5723 82.2757C35.6797 83.3422 36.1556 84.338 36.918 85.0915L44.8881 93.0616C45.6423 93.8245 46.639 94.3005 47.7065 94.4073C49.2403 94.5783 50.7818 94.6716 52.325 94.6866L50.0678 115.253C50.0325 115.602 50.0779 115.954 50.2004 116.282C50.3229 116.61 50.5192 116.906 50.7742 117.146C51.0292 117.386 51.336 117.565 51.671 117.667C52.0059 117.77 52.36 117.795 52.7059 117.739C59.0281 116.723 73.7801 112.993 79.3838 100.176C81.3643 95.6311 81.7705 90.327 81.3135 85.0204C84.8688 82.515 88.1983 79.7038 91.2641 76.6186C108.626 59.353 120.583 28.1581 117.256 13.6626ZM75.8317 54.252C74.3152 52.7359 73.2823 50.8041 72.8638 48.7009C72.4453 46.5977 72.6598 44.4177 73.4803 42.4365C74.3008 40.4552 75.6905 38.7618 77.4734 37.5704C79.2564 36.379 81.3527 35.7431 83.4971 35.7431C85.6415 35.7431 87.7377 36.379 89.5207 37.5704C91.3037 38.7618 92.6933 40.4552 93.5138 42.4365C94.3344 44.4177 94.5489 46.5977 94.1304 48.7009C93.7118 50.8041 92.679 52.7359 91.1625 54.252C90.1566 55.26 88.9618 56.0598 87.6465 56.6054C86.3312 57.1511 84.9211 57.4319 83.4971 57.4319C82.0731 57.4319 80.663 57.1511 79.3477 56.6054C78.0323 56.0598 76.8375 55.26 75.8317 54.252Z" stroke="#FAB900" stroke-opacity="0.45" stroke-width="2" stroke-linecap="round" stroke-linejoin="round"/>
<path d="M27.8383 89.375C25.3071 89.6857 22.9523 90.8332 21.1479 92.6352C16.674 97.1242 16.25 113.75 16.25 113.75C16.25 113.75 32.8859 113.326 37.3623 108.847C39.1716 107.045 40.321 104.687 40.625 102.152" stroke="#FAB900" stroke-opacity="0.45" stroke-width="2" stroke-linecap="round" stroke-linejoin="round"/>
</svg>
