<svg width="111" height="110" viewBox="0 0 111 110" fill="none" xmlns="http://www.w3.org/2000/svg">
<circle cx="55.0713" cy="55" r="55" fill="#39988B" fill-opacity="0.05"/>
<path d="M55.0188 65.0825C57.4427 65.0825 59.5033 64.2345 61.2006 62.5384C62.898 60.8424 63.746 58.7817 63.7447 56.3566V47.6306H55.0188C52.5949 47.6306 50.5349 48.4793 48.8389 50.1766C47.1428 51.874 46.2941 53.934 46.2928 56.3566C46.2928 57.1968 46.4059 58.0048 46.6322 58.7804C46.8584 59.5561 47.1977 60.2994 47.6502 61.0104L46.8745 61.7861C46.519 62.1416 46.3413 62.594 46.3413 63.1434C46.3413 63.6928 46.519 64.1453 46.8745 64.5008C47.2301 64.8563 47.6825 65.034 48.2319 65.034C48.7813 65.034 49.2338 64.8563 49.5893 64.5008L50.3649 63.7252C51.0759 64.1776 51.8193 64.517 52.5949 64.7432C53.3705 64.9694 54.1785 65.0825 55.0188 65.0825ZM55.9883 76.7171L49.2984 71.4816L40.9118 70.4635L39.8938 62.0769L34.6582 55.387L39.8938 48.6971L40.9118 40.3105L49.2984 39.2925L55.9883 34.0569L62.6782 39.2925L71.0649 40.3105L72.0829 48.6971L77.3185 55.387L72.0829 62.0769L71.0649 70.4635L62.6782 71.4816L55.9883 76.7171ZM57.3457 56.7444C57.7012 56.3566 57.879 55.8964 57.879 55.3637C57.879 54.8311 57.7012 54.3864 57.3457 54.0296C56.9902 53.6728 56.5461 53.4951 56.0135 53.4964C55.4809 53.4977 55.0201 53.6754 54.631 54.0296L51.9162 56.7444C51.5284 57.1322 51.3345 57.5931 51.3345 58.127C51.3345 58.6609 51.5284 59.1211 51.9162 59.5076C52.304 59.8941 52.7649 60.088 53.2988 60.0893C53.8327 60.0906 54.2768 59.8967 54.631 59.5076L57.3457 56.7444Z" fill="#39988B"/>
</svg>
