<svg width="110" height="110" viewBox="0 0 110 110" fill="none" xmlns="http://www.w3.org/2000/svg">
<circle cx="55" cy="55" r="55" fill="#39988B" fill-opacity="0.05"/>
<path d="M74.8231 51.3265V51.0356C73.8991 46.5677 71.469 42.5526 67.9393 39.6618C64.4096 36.771 59.9944 35.1798 55.432 35.1544C50.3832 35.1419 45.523 37.0721 41.8583 40.5451L41.4511 40.9135C41.4429 40.9453 41.4429 40.9786 41.4511 41.0104C38.7248 43.7417 36.8544 47.2088 36.069 50.9871C35.2836 54.7654 35.6173 58.6907 37.0292 62.2822C38.4411 65.8737 40.8699 68.9754 44.018 71.2072C47.1662 73.4391 50.897 74.7043 54.7533 74.8478H55.529C60.7988 74.8427 65.8513 72.747 69.5776 69.0206C73.304 65.2943 75.3997 60.2418 75.4048 54.972C75.3273 53.7411 75.1325 52.5204 74.8231 51.3265ZM55.5484 71.9973C54.8361 69.8421 54.4377 67.5955 54.3655 65.3268C54.5788 62.3794 52.0192 62.1079 50.9139 61.9915C49.2463 61.817 48.141 61.7007 48.141 58.346C48.1972 56.6047 48.3718 54.8673 48.6646 53.1492C49.3045 48.6893 50.0219 43.7252 45.3293 41.3013C48.2248 39.1936 51.7149 38.0597 55.2963 38.063C56.602 38.0593 57.9037 38.209 59.1745 38.509C59.2624 39.4859 59.1435 40.4704 58.8255 41.3983C56.5761 42.0382 56.5373 44.9856 56.4985 48.4178C56.5819 50.324 56.3861 52.232 55.9168 54.08C55.5631 54.8974 55.5175 55.8153 55.7884 56.6638C56.0594 57.5123 56.6285 58.2339 57.3905 58.6951C58.4473 59.3156 59.6554 59.6297 60.8809 59.6064C61.8357 59.6267 62.785 59.4571 63.6738 59.1076C64.5626 58.7581 65.3731 58.2356 66.0583 57.5704C67.2103 56.4181 67.9702 54.9323 68.2301 53.3237C68.2883 53.1143 68.3271 52.901 68.3465 52.6838C68.5318 52.6446 68.7234 52.6446 68.9088 52.6838C69.4517 52.6838 70.1692 52.6838 70.8479 52.8002H72.0501C72.3747 55.1757 72.1904 57.5931 71.5095 59.892C70.8285 62.1908 69.6664 64.3186 68.1003 66.1341C66.5343 67.9495 64.6 69.4112 62.4259 70.4221C60.2519 71.4329 57.8876 71.9699 55.4902 71.9973H55.5484Z" fill="#39988B"/>
</svg>
