<svg width="111" height="110" viewBox="0 0 111 110" fill="none" xmlns="http://www.w3.org/2000/svg">
<circle cx="55.5" cy="55" r="55" fill="#39988B" fill-opacity="0.05"/>
<path d="M44.8401 54.032C44.5647 54.032 44.3346 54.1251 44.1498 54.3112C43.9649 54.4974 43.8725 54.7275 43.8725 55.0016V64.6971C43.8725 64.9724 43.9656 65.2025 44.1517 65.3874C44.3379 65.5722 44.5686 65.6653 44.844 65.6666C45.1193 65.6679 45.3494 65.5748 45.5343 65.3874C45.7192 65.1999 45.8109 64.9698 45.8097 64.6971V55.0016C45.8097 54.7262 45.7166 54.4961 45.5304 54.3112C45.3443 54.1251 45.1155 54.032 44.8401 54.032ZM52.1486 48.2147C51.8719 48.2147 51.6412 48.3078 51.4563 48.4939C51.2715 48.6801 51.1797 48.9102 51.181 49.1842V64.6971C51.181 64.9724 51.274 65.2025 51.4602 65.3874C51.6463 65.5722 51.8771 65.6653 52.1525 65.6666C52.4278 65.6679 52.6579 65.5748 52.8428 65.3874C53.0276 65.1999 53.1201 64.9698 53.1201 64.6971V49.1842C53.1201 48.9089 53.027 48.6788 52.8408 48.4939C52.6547 48.3091 52.4239 48.216 52.1486 48.2147ZM59.459 59.8493C59.1836 59.8493 58.9535 59.9424 58.7687 60.1285C58.5838 60.3147 58.4907 60.5448 58.4894 60.8189V64.6971C58.4894 64.9724 58.5825 65.2025 58.7687 65.3874C58.9548 65.5735 59.1856 65.6666 59.4609 65.6666C59.7363 65.6666 59.9664 65.5735 60.1513 65.3874C60.3361 65.2012 60.4285 64.9711 60.4285 64.6971V60.8189C60.4285 60.5435 60.3355 60.3134 60.1493 60.1285C59.9632 59.9437 59.7331 59.8506 59.459 59.8493ZM67.6633 54.032C66.6447 54.032 65.6667 53.8639 64.7295 53.5278C63.7922 53.1917 62.9196 52.7069 62.1117 52.0735L60.7873 53.2758C60.5727 53.4567 60.3355 53.5537 60.0756 53.5666C59.8158 53.5795 59.596 53.4949 59.4163 53.3126C59.2095 53.1058 59.1061 52.8769 59.1061 52.6262C59.1061 52.3754 59.2095 52.1465 59.4163 51.9397L60.7485 50.6424C60.2068 49.841 59.7699 48.9923 59.4377 48.0964C59.1054 47.2005 58.9387 46.2704 58.9374 45.306C58.9374 42.8912 59.788 40.8332 61.4892 39.1319C63.1905 37.4307 65.2485 36.5801 67.6633 36.5801H74.8225C75.2672 36.5801 75.6395 36.73 75.9394 37.03C76.2393 37.3299 76.3893 37.7022 76.3893 38.1469V45.306C76.3893 47.7209 75.5387 49.7789 73.8374 51.4801C72.1362 53.1814 70.0782 54.032 67.6633 54.032ZM69.4085 43.3029C69.2069 43.1026 68.9806 43.0024 68.7298 43.0024C68.479 43.0024 68.2502 43.1058 68.0434 43.3126L63.8375 47.5166C63.6242 47.7312 63.5195 47.9665 63.5234 48.2224C63.5259 48.4784 63.6306 48.713 63.8375 48.9263C64.0508 49.1151 64.2796 49.2179 64.5239 49.2347C64.7683 49.2515 64.9971 49.1526 65.2104 48.938L69.4163 44.7301C69.6296 44.5168 69.7362 44.2803 69.7362 44.0204C69.7362 43.7606 69.6283 43.5214 69.4085 43.3029ZM39.7732 72.4535C38.911 72.4535 38.1735 72.1465 37.5607 71.5324C36.948 70.9184 36.6403 70.1821 36.6377 69.3238V44.5595C36.6377 43.6985 36.9447 42.9617 37.5588 42.3489C38.1728 41.7362 38.909 41.4291 39.7674 41.4278H53.4904C53.9351 41.4278 54.3074 41.5778 54.6074 41.8777C54.9073 42.1776 55.0572 42.5499 55.0572 42.9946V54.7786C55.0572 55.6395 55.3643 56.3764 55.9783 56.9891C56.5924 57.6019 57.3292 57.9089 58.1889 57.9102H66.083C66.5303 57.9102 66.9051 58.0602 67.2076 58.3601C67.5101 58.66 67.6614 59.0323 67.6614 59.477V69.3218C67.6614 70.1828 67.3544 70.9196 66.7403 71.5324C66.1263 72.1452 65.3894 72.4522 64.5297 72.4535H39.7732Z" fill="#39988B"/>
</svg>
