<svg width="50" height="50" viewBox="0 0 50 50" fill="none" xmlns="http://www.w3.org/2000/svg">
<path d="M24.9997 24.9997C21.608 24.9997 18.7045 23.792 16.2893 21.3768C13.874 18.9615 12.6663 16.058 12.6663 12.6663C12.6663 9.27467 13.874 6.3712 16.2893 3.95592C18.7045 1.54065 21.608 0.333008 24.9997 0.333008C28.3913 0.333008 31.2948 1.54065 33.7101 3.95592C36.1254 6.3712 37.333 9.27467 37.333 12.6663C37.333 16.058 36.1254 18.9615 33.7101 21.3768C31.2948 23.792 28.3913 24.9997 24.9997 24.9997ZM0.333008 43.4997V41.033C0.333008 39.2858 0.783175 37.6804 1.68351 36.2168C2.58384 34.7533 3.77812 33.6351 5.26634 32.8622C8.45245 31.2691 11.69 30.0748 14.9788 29.2793C18.2677 28.4838 21.608 28.0851 24.9997 28.083C28.3913 28.081 31.7316 28.4797 35.0205 29.2793C38.3094 30.079 41.5469 31.2732 44.733 32.8622C46.2233 33.633 47.4186 34.7512 48.3189 36.2168C49.2193 37.6824 49.6684 39.2878 49.6663 41.033V43.4997C49.6663 45.1955 49.063 46.6478 47.8564 47.8564C46.6498 49.0651 45.1976 49.6684 43.4997 49.6663H6.49967C4.80384 49.6663 3.35262 49.063 2.14601 47.8564C0.939396 46.6498 0.335063 45.1976 0.333008 43.4997Z" fill="#FAB900"/>
</svg>
