<svg width="74" height="74" viewBox="0 0 74 74" fill="none" xmlns="http://www.w3.org/2000/svg">
<path d="M49.1795 67.833L36.0753 54.7288L40.392 50.4122L49.1795 59.1997L66.6003 41.7788L70.917 46.0955L49.1795 67.833ZM12.3337 61.6663C10.6378 61.6663 9.1866 61.063 7.97999 59.8564C6.77338 58.6498 6.16905 57.1976 6.16699 55.4997V18.4997C6.16699 16.8038 6.77133 15.3526 7.97999 14.146C9.18866 12.9394 10.6399 12.3351 12.3337 12.333H61.667C63.3628 12.333 64.8151 12.9373 66.0237 14.146C67.2324 15.3547 67.8357 16.8059 67.8337 18.4997V31.9122L49.2566 50.4893L40.392 41.6247L27.3649 54.6518L34.3795 61.6663H12.3337ZM37.0003 40.083L61.667 24.6663V18.4997L37.0003 33.9163L12.3337 18.4997V24.6663L37.0003 40.083Z" fill="#FAB900"/>
</svg>
