<svg width="62" height="62" viewBox="0 0 62 62" fill="none" xmlns="http://www.w3.org/2000/svg">
<path fill-rule="evenodd" clip-rule="evenodd" d="M12.3964 24.7909V14.4614C12.3964 12.5623 12.7705 10.6818 13.4972 8.92724C14.224 7.17271 15.2892 5.5785 16.6321 4.23564C17.9749 2.89277 19.5691 1.82756 21.3237 1.10081C23.0782 0.374054 24.9587 0 26.8578 0C28.7569 0 30.6374 0.374054 32.3919 1.10081C34.1465 1.82756 35.7407 2.89277 37.0835 4.23564C38.4264 5.5785 39.4916 7.17271 40.2184 8.92724C40.9451 10.6818 41.3192 12.5623 41.3192 14.4614V24.7909H47.5169C49.1606 24.7909 50.737 25.4439 51.8993 26.6062C53.0616 27.7685 53.7146 29.3449 53.7146 30.9886V33.2611C56.0497 33.7353 58.149 35.0021 59.6569 36.847C61.1649 38.6919 61.9886 41.0014 61.9886 43.3841C61.9886 45.7668 61.1649 48.0763 59.6569 49.9212C58.149 51.766 56.0497 53.0329 53.7146 53.507V55.7795C53.7146 57.4233 53.0616 58.9997 51.8993 60.162C50.737 61.3243 49.1606 61.9773 47.5169 61.9773H6.1987C4.55496 61.9773 2.97855 61.3243 1.81625 60.162C0.653949 58.9997 0.000976563 57.4233 0.000976563 55.7795L0.000976562 30.9886C0.000976563 29.3449 0.653949 27.7685 1.81625 26.6062C2.97855 25.4439 4.55496 24.7909 6.1987 24.7909H12.3964ZM16.5282 14.4614C16.5282 11.7218 17.6165 9.09444 19.5537 7.15727C21.4909 5.22011 24.1182 4.13182 26.8578 4.13182C29.5974 4.13182 32.2247 5.22011 34.1619 7.15727C36.0991 9.09444 37.1873 11.7218 37.1873 14.4614V24.7909H16.5282V14.4614ZM35.1214 37.1864C33.4777 37.1864 31.9013 37.8393 30.739 39.0016C29.5767 40.1639 28.9237 41.7404 28.9237 43.3841C28.9237 45.0278 29.5767 46.6042 30.739 47.7665C31.9013 48.9288 33.4777 49.5818 35.1214 49.5818H51.6487C53.2924 49.5818 54.8689 48.9288 56.0312 47.7665C57.1935 46.6042 57.8464 45.0278 57.8464 43.3841C57.8464 41.7404 57.1935 40.1639 56.0312 39.0016C54.8689 37.8393 53.2924 37.1864 51.6487 37.1864H35.1214Z" fill="#FAB900"/>
</svg>
