<svg width="66" height="66" viewBox="0 0 66 66" fill="none" xmlns="http://www.w3.org/2000/svg">
<path d="M33 0.625C41.5864 0.625 49.8211 4.03593 55.8926 10.1074C61.9641 16.1789 65.375 24.4136 65.375 33C65.375 41.5864 61.9641 49.8211 55.8926 55.8926C49.8211 61.9641 41.5864 65.375 33 65.375C24.4136 65.375 16.1789 61.9641 10.1074 55.8926C4.03593 49.8211 0.625 41.5864 0.625 33C0.625 24.4136 4.03593 16.1789 10.1074 10.1074C16.1789 4.03593 24.4136 0.625 33 0.625ZM28.967 39.3871L21.7751 32.1906C21.5173 31.9328 21.2112 31.7283 20.8743 31.5887C20.5375 31.4492 20.1764 31.3774 19.8118 31.3774C19.4472 31.3774 19.0861 31.4492 18.7493 31.5887C18.4124 31.7283 18.1063 31.9328 17.8485 32.1906C17.3278 32.7113 17.0353 33.4176 17.0353 34.1539C17.0353 34.8903 17.3278 35.5965 17.8485 36.1172L27.006 45.2747C27.2631 45.5339 27.5689 45.7396 27.9059 45.8799C28.2429 46.0203 28.6043 46.0925 28.9693 46.0925C29.3343 46.0925 29.6958 46.0203 30.0327 45.8799C30.3697 45.7396 30.6755 45.5339 30.9326 45.2747L49.8951 26.3076C50.1564 26.0509 50.3642 25.7449 50.5067 25.4074C50.6491 25.07 50.7233 24.7076 50.725 24.3413C50.7267 23.975 50.6559 23.612 50.5166 23.2732C50.3773 22.9344 50.1723 22.6265 49.9135 22.3673C49.6546 22.1081 49.347 21.9028 49.0083 21.7631C48.6697 21.6234 48.3068 21.5521 47.9404 21.5534C47.5741 21.5547 47.2117 21.6285 46.874 21.7705C46.5364 21.9125 46.2302 22.12 45.9731 22.381L28.967 39.3871Z" fill="#FAB900"/>
</svg>
