<svg width="41" height="56" viewBox="0 0 41 56" fill="none" xmlns="http://www.w3.org/2000/svg">
<mask id="path-1-inside-1_0_1704" fill="white">
<path d="M21.9927 54.4349L21.9649 54.44L21.7854 54.5285L21.7348 54.5386L21.6994 54.5285L21.5199 54.44C21.4929 54.4316 21.4727 54.4358 21.4592 54.4526L21.4491 54.4779L21.4061 55.56L21.4188 55.6106L21.444 55.6435L21.707 55.8306L21.7449 55.8407L21.7753 55.8306L22.0382 55.6435L22.0685 55.603L22.0787 55.56L22.0357 54.4804C22.0289 54.4535 22.0146 54.4383 21.9927 54.4349ZM22.6627 54.1492L22.6298 54.1543L22.1621 54.3894L22.1368 54.4147L22.1292 54.4425L22.1747 55.5297L22.1874 55.56L22.2076 55.5777L22.7158 55.8129C22.7478 55.8213 22.7723 55.8146 22.7891 55.7927L22.7992 55.7573L22.7133 54.2049C22.7048 54.1745 22.688 54.156 22.6627 54.1492ZM20.8549 54.1543C20.8438 54.1475 20.8305 54.1454 20.8178 54.1482C20.805 54.151 20.7939 54.1586 20.7867 54.1695L20.7715 54.2049L20.6855 55.7573C20.6872 55.7876 20.7016 55.8078 20.7285 55.8179L20.7665 55.8129L21.2746 55.5777L21.2999 55.5575L21.31 55.5297L21.353 54.4425L21.3454 54.4122L21.3202 54.3869L20.8549 54.1543Z"/>
</mask>
<path d="M21.9927 54.4349L21.9649 54.44L21.7854 54.5285L21.7348 54.5386L21.6994 54.5285L21.5199 54.44C21.4929 54.4316 21.4727 54.4358 21.4592 54.4526L21.4491 54.4779L21.4061 55.56L21.4188 55.6106L21.444 55.6435L21.707 55.8306L21.7449 55.8407L21.7753 55.8306L22.0382 55.6435L22.0685 55.603L22.0787 55.56L22.0357 54.4804C22.0289 54.4535 22.0146 54.4383 21.9927 54.4349ZM22.6627 54.1492L22.6298 54.1543L22.1621 54.3894L22.1368 54.4147L22.1292 54.4425L22.1747 55.5297L22.1874 55.56L22.2076 55.5777L22.7158 55.8129C22.7478 55.8213 22.7723 55.8146 22.7891 55.7927L22.7992 55.7573L22.7133 54.2049C22.7048 54.1745 22.688 54.156 22.6627 54.1492ZM20.8549 54.1543C20.8438 54.1475 20.8305 54.1454 20.8178 54.1482C20.805 54.151 20.7939 54.1586 20.7867 54.1695L20.7715 54.2049L20.6855 55.7573C20.6872 55.7876 20.7016 55.8078 20.7285 55.8179L20.7665 55.8129L21.2746 55.5777L21.2999 55.5575L21.31 55.5297L21.353 54.4425L21.3454 54.4122L21.3202 54.3869L20.8549 54.1543Z" fill="#FAB900"/>
<path d="M21.9927 54.4349L22.2968 52.4582L21.9651 52.4072L21.6348 52.4672L21.9927 54.4349ZM21.9649 54.44L21.607 52.4723L21.3316 52.5224L21.0806 52.6461L21.9649 54.44ZM21.7854 54.5285L22.1776 56.4897L22.4346 56.4383L22.6697 56.3224L21.7854 54.5285ZM21.7348 54.5386L21.1854 56.4617L21.6516 56.5948L22.127 56.4998L21.7348 54.5386ZM21.6994 54.5285L20.8151 56.3224L20.9767 56.402L21.15 56.4515L21.6994 54.5285ZM21.5199 54.44L22.4042 52.6461L22.2648 52.5774L22.1164 52.531L21.5199 54.44ZM21.4592 54.4526L19.8975 53.2032L19.7123 53.4347L19.6022 53.7099L21.4592 54.4526ZM21.4491 54.4779L19.5921 53.7352L19.4643 54.0547L19.4507 54.3985L21.4491 54.4779ZM21.4061 55.56L19.4077 55.4807L19.3963 55.7671L19.4658 56.0451L21.4061 55.56ZM21.4188 55.6106L19.4785 56.0957L19.5795 56.4998L19.8335 56.83L21.4188 55.6106ZM21.444 55.6435L19.8588 56.8629L20.041 57.0998L20.2845 57.2731L21.444 55.6435ZM21.707 55.8306L20.5475 57.4602L20.8422 57.6699L21.1917 57.7631L21.707 55.8306ZM21.7449 55.8407L21.2296 57.7732L21.8087 57.9276L22.3773 57.7381L21.7449 55.8407ZM21.7753 55.8306L22.4077 57.728L22.6912 57.6334L22.9348 57.4602L21.7753 55.8306ZM22.0382 55.6435L23.1977 57.2731L23.4514 57.0926L23.6382 56.8435L22.0382 55.6435ZM22.0685 55.603L23.6686 56.803L23.9196 56.4683L24.0154 56.0611L22.0685 55.603ZM22.0787 55.56L24.0255 56.0181L24.0879 55.7528L24.0771 55.4805L22.0787 55.56ZM22.0357 54.4804L24.0341 54.4009L24.0259 54.1951L23.976 53.9954L22.0357 54.4804ZM22.6627 54.1492L23.178 52.2168L22.773 52.1088L22.3587 52.1725L22.6627 54.1492ZM22.6298 54.1543L22.3259 52.1775L22.0137 52.2255L21.7315 52.3674L22.6298 54.1543ZM22.1621 54.3894L21.2638 52.6025L20.9758 52.7473L20.7479 52.9752L22.1621 54.3894ZM22.1368 54.4147L20.7226 53.0005L20.347 53.3761L20.2073 53.8886L22.1368 54.4147ZM22.1292 54.4425L20.1997 53.9164L20.118 54.2159L20.131 54.5262L22.1292 54.4425ZM22.1747 55.5297L20.1765 55.6134L20.1914 55.9697L20.3286 56.299L22.1747 55.5297ZM22.1874 55.56L20.3412 56.3293L20.5202 56.7588L20.8704 57.0652L22.1874 55.56ZM22.2076 55.5777L20.8906 57.0829L21.1069 57.2722L21.3678 57.3929L22.2076 55.5777ZM22.7158 55.8129L21.876 57.628L22.0361 57.7021L22.2068 57.747L22.7158 55.8129ZM22.7891 55.7927L24.3744 57.0121L24.6073 56.7093L24.7122 56.3421L22.7891 55.7927ZM22.7992 55.7573L24.7223 56.3067L24.8148 55.9829L24.7962 55.6467L22.7992 55.7573ZM22.7133 54.2049L24.7102 54.0943L24.6982 53.8781L24.6403 53.6696L22.7133 54.2049ZM20.8549 54.1543L19.8184 55.8647L19.8878 55.9068L19.9605 55.9431L20.8549 54.1543ZM20.7867 54.1695L19.1233 53.0591L19.021 53.2123L18.9484 53.3816L20.7867 54.1695ZM20.7715 54.2049L18.9332 53.417L18.7941 53.7416L18.7746 54.0943L20.7715 54.2049ZM20.6855 55.7573L18.6886 55.6467L18.6825 55.7574L18.6886 55.8682L20.6855 55.7573ZM20.7285 55.8179L20.0263 57.6906L20.4959 57.8667L20.993 57.8004L20.7285 55.8179ZM20.7665 55.8129L21.0309 57.7953L21.3313 57.7553L21.6063 57.628L20.7665 55.8129ZM21.2746 55.5777L22.1145 57.3929L22.3346 57.291L22.524 57.1395L21.2746 55.5777ZM21.2999 55.5575L22.5492 57.1193L22.9877 56.7686L23.1795 56.241L21.2999 55.5575ZM21.31 55.5297L23.1896 56.2132L23.2962 55.9202L23.3085 55.6087L21.31 55.5297ZM21.353 54.4425L23.3515 54.5215L23.3628 54.2353L23.2933 53.9574L21.353 54.4425ZM21.3454 54.4122L23.2857 53.927L23.1513 53.3897L22.7597 52.998L21.3454 54.4122ZM21.3202 54.3869L22.7344 52.9727L22.5049 52.7432L22.2146 52.5981L21.3202 54.3869ZM21.9927 54.4349L21.6348 52.4672L21.607 52.4723L21.9649 54.44L22.3228 56.4077L22.3506 56.4027L21.9927 54.4349ZM21.9649 54.44L21.0806 52.6461L20.9011 52.7346L21.7854 54.5285L22.6697 56.3224L22.8492 56.2339L21.9649 54.44ZM21.7854 54.5285L21.3932 52.5673L21.3426 52.5774L21.7348 54.5386L22.127 56.4998L22.1776 56.4897L21.7854 54.5285ZM21.7348 54.5386L22.2842 52.6155L22.2488 52.6054L21.6994 54.5285L21.15 56.4515L21.1854 56.4617L21.7348 54.5386ZM21.6994 54.5285L22.5837 52.7346L22.4042 52.6461L21.5199 54.44L20.6356 56.2339L20.8151 56.3224L21.6994 54.5285ZM21.5199 54.44L22.1164 52.531C21.892 52.4609 21.5206 52.3864 21.0767 52.4789C20.5897 52.5803 20.1807 52.8492 19.8975 53.2032L21.4592 54.4526L23.021 55.702C22.7512 56.0392 22.3591 56.2976 21.8923 56.3948C21.4687 56.4831 21.1208 56.4107 20.9233 56.349L21.5199 54.44ZM21.4592 54.4526L19.6022 53.7099L19.5921 53.7352L21.4491 54.4779L23.3061 55.2206L23.3162 55.1954L21.4592 54.4526ZM21.4491 54.4779L19.4507 54.3985L19.4077 55.4807L21.4061 55.56L23.4045 55.6394L23.4475 54.5573L21.4491 54.4779ZM21.4061 55.56L19.4658 56.0451L19.4785 56.0957L21.4188 55.6106L23.359 55.1255L23.3464 55.075L21.4061 55.56ZM21.4188 55.6106L19.8335 56.83L19.8588 56.8629L21.444 55.6435L23.0293 54.4241L23.004 54.3912L21.4188 55.6106ZM21.444 55.6435L20.2845 57.2731L20.5475 57.4602L21.707 55.8306L22.8665 54.201L22.6036 54.0139L21.444 55.6435ZM21.707 55.8306L21.1917 57.7631L21.2296 57.7732L21.7449 55.8407L22.2602 53.9082L22.2223 53.8981L21.707 55.8306ZM21.7449 55.8407L22.3773 57.7381L22.4077 57.728L21.7753 55.8306L21.1428 53.9332L21.1125 53.9433L21.7449 55.8407ZM21.7753 55.8306L22.9348 57.4602L23.1977 57.2731L22.0382 55.6435L20.8787 54.0139L20.6158 54.201L21.7753 55.8306ZM22.0382 55.6435L23.6382 56.8435L23.6686 56.803L22.0685 55.603L20.4685 54.4031L20.4382 54.4435L22.0382 55.6435ZM22.0685 55.603L24.0154 56.0611L24.0255 56.0181L22.0787 55.56L20.1318 55.102L20.1217 55.145L22.0685 55.603ZM22.0787 55.56L24.0771 55.4805L24.0341 54.4009L22.0357 54.4804L20.0373 54.56L20.0802 55.6396L22.0787 55.56ZM22.0357 54.4804L23.976 53.9954C23.9161 53.7558 23.7822 53.402 23.4739 53.0756C23.1414 52.7235 22.7181 52.523 22.2968 52.4582L21.9927 54.4349L21.6886 56.4117C21.2892 56.3502 20.884 56.159 20.5658 55.8221C20.2719 55.5109 20.1485 55.1781 20.0954 54.9655L22.0357 54.4804ZM22.6627 54.1492L22.3587 52.1725L22.3259 52.1775L22.6298 54.1543L22.9338 56.1311L22.9667 56.126L22.6627 54.1492ZM22.6298 54.1543L21.7315 52.3674L21.2638 52.6025L22.1621 54.3894L23.0604 56.1763L23.5281 55.9412L22.6298 54.1543ZM22.1621 54.3894L20.7479 52.9752L20.7226 53.0005L22.1368 54.4147L23.551 55.8289L23.5763 55.8036L22.1621 54.3894ZM22.1368 54.4147L20.2073 53.8886L20.1997 53.9164L22.1292 54.4425L24.0588 54.9687L24.0664 54.9408L22.1368 54.4147ZM22.1292 54.4425L20.131 54.5262L20.1765 55.6134L22.1747 55.5297L24.173 55.4461L24.1275 54.3589L22.1292 54.4425ZM22.1747 55.5297L20.3286 56.299L20.3412 56.3293L22.1874 55.56L24.0335 54.7908L24.0209 54.7604L22.1747 55.5297ZM22.1874 55.56L20.8704 57.0652L20.8906 57.0829L22.2076 55.5777L23.5246 54.0726L23.5043 54.0549L22.1874 55.56ZM22.2076 55.5777L21.3678 57.3929L21.876 57.628L22.7158 55.8129L23.5556 53.9978L23.0474 53.7626L22.2076 55.5777ZM22.7158 55.8129L22.2068 57.747C22.4624 57.8143 22.8485 57.8639 23.2899 57.7421C23.7593 57.6127 24.1264 57.3344 24.3744 57.0121L22.7891 55.7927L21.2039 54.5732C21.435 54.2728 21.7814 54.0089 22.2264 53.8861C22.6433 53.7711 23.0013 53.8199 23.2248 53.8787L22.7158 55.8129ZM22.7891 55.7927L24.7122 56.3421L24.7223 56.3067L22.7992 55.7573L20.8762 55.2078L20.8661 55.2432L22.7891 55.7927ZM22.7992 55.7573L24.7962 55.6467L24.7102 54.0943L22.7133 54.2049L20.7163 54.3154L20.8023 55.8678L22.7992 55.7573ZM22.7133 54.2049L24.6403 53.6696C24.4875 53.1194 24.0374 52.4459 23.178 52.2168L22.6627 54.1492L22.1474 56.0817C21.8061 55.9907 21.4763 55.8016 21.2145 55.5136C20.9656 55.2398 20.8448 54.9508 20.7862 54.7401L22.7133 54.2049ZM20.8549 54.1543L21.8915 52.4439C21.4395 52.1699 20.8994 52.0813 20.3839 52.1958L20.8178 54.1482L21.2516 56.1006C20.7616 56.2094 20.2481 56.1252 19.8184 55.8647L20.8549 54.1543ZM20.8178 54.1482L20.3839 52.1958C19.8683 52.3104 19.4167 52.6195 19.1233 53.0591L20.7867 54.1695L22.4501 55.2799C22.1712 55.6977 21.7418 55.9916 21.2516 56.1006L20.8178 54.1482ZM20.7867 54.1695L18.9484 53.3816L18.9332 53.417L20.7715 54.2049L22.6098 54.9928L22.6249 54.9574L20.7867 54.1695ZM20.7715 54.2049L18.7746 54.0943L18.6886 55.6467L20.6855 55.7573L22.6825 55.8678L22.7684 54.3154L20.7715 54.2049ZM20.6855 55.7573L18.6886 55.8682C18.7056 56.1741 18.7963 56.5712 19.0655 56.9512C19.3396 57.3382 19.7005 57.5684 20.0263 57.6906L20.7285 55.8179L21.4308 53.9453C21.7296 54.0573 22.0698 54.2724 22.3296 54.6391C22.5845 54.9989 22.6672 55.3708 22.6825 55.6463L20.6855 55.7573ZM20.7285 55.8179L20.993 57.8004L21.0309 57.7953L20.7665 55.8129L20.502 53.8304L20.4641 53.8355L20.7285 55.8179ZM20.7665 55.8129L21.6063 57.628L22.1145 57.3929L21.2746 55.5777L20.4348 53.7626L19.9266 53.9978L20.7665 55.8129ZM21.2746 55.5777L22.524 57.1395L22.5492 57.1193L21.2999 55.5575L20.0506 53.9957L20.0253 54.0159L21.2746 55.5777ZM21.2999 55.5575L23.1795 56.241L23.1896 56.2132L21.31 55.5297L19.4304 54.8462L19.4203 54.8741L21.2999 55.5575ZM21.31 55.5297L23.3085 55.6087L23.3515 54.5215L21.353 54.4425L19.3546 54.3635L19.3116 55.4507L21.31 55.5297ZM21.353 54.4425L23.2933 53.9574L23.2857 53.927L21.3454 54.4122L19.4052 54.8973L19.4128 54.9277L21.353 54.4425ZM21.3454 54.4122L22.7597 52.998L22.7344 52.9727L21.3202 54.3869L19.9059 55.8011L19.9312 55.8264L21.3454 54.4122ZM21.3202 54.3869L22.2146 52.5981L21.7494 52.3654L20.8549 54.1543L19.9605 55.9431L20.4257 56.1758L21.3202 54.3869Z" fill="#FAB900" mask="url(#path-1-inside-1_0_1704)"/>
<path d="M7.85156 1.6875H33.1348C34.772 1.6875 36.3468 2.29695 37.5547 3.39062L37.791 3.61621C39.0259 4.85113 39.7197 6.52602 39.7197 8.27246V48.7969C39.7195 50.9972 37.3083 52.3059 35.4795 51.1865L35.3047 51.0703H35.3037L21.0742 40.9062L20.4932 40.4912L19.9121 40.9062L5.68262 51.0703C3.8342 52.3919 1.2666 51.0703 1.2666 48.7988V8.27246L1.27441 7.94629C1.3497 6.42713 1.94883 4.98004 2.96973 3.85254L3.19531 3.61621C4.35314 2.45839 5.8977 1.77598 7.52539 1.69531L7.85156 1.6875Z" fill="#FAB900" stroke="#FAB900" stroke-width="2"/>
</svg>
