<svg width="1440" height="1042" viewBox="0 0 1440 1042" fill="none" xmlns="http://www.w3.org/2000/svg">
<g opacity="0.09" clip-path="url(#clip0_728_3365)">
<line x1="641.755" y1="182.801" x2="641.755" y2="1350.21" stroke="#222020" stroke-width="1.2607"/>
<line x1="319.015" y1="182.801" x2="319.015" y2="1350.21" stroke="#222020" stroke-width="1.2607"/>
<line x1="964.492" y1="182.801" x2="964.492" y2="1350.21" stroke="#222020" stroke-width="1.2607"/>
<line x1="1287.23" y1="182.801" x2="1287.23" y2="1350.21" stroke="#222020" stroke-width="1.2607"/>
<line x1="157.645" y1="182.801" x2="157.645" y2="1350.21" stroke="#222020" stroke-width="1.2607"/>
<line x1="803.122" y1="182.801" x2="803.122" y2="1350.21" stroke="#222020" stroke-width="1.2607"/>
<line x1="480.385" y1="182.801" x2="480.385" y2="1350.21" stroke="#222020" stroke-width="1.2607"/>
<line x1="1125.86" y1="182.801" x2="1125.86" y2="1350.21" stroke="#222020" stroke-width="1.2607"/>
<line x1="76.9624" y1="182.801" x2="76.9623" y2="1350.21" stroke="#222020" stroke-width="1.2607"/>
<line x1="722.439" y1="182.801" x2="722.439" y2="1350.21" stroke="#222020" stroke-width="1.2607"/>
<line x1="399.698" y1="182.801" x2="399.698" y2="1350.21" stroke="#222020" stroke-width="1.2607"/>
<line x1="1045.18" y1="182.801" x2="1045.18" y2="1350.21" stroke="#222020" stroke-width="1.2607"/>
<line x1="1367.91" y1="182.801" x2="1367.91" y2="1350.21" stroke="#222020" stroke-width="1.2607"/>
<line x1="238.332" y1="182.801" x2="238.332" y2="1350.21" stroke="#222020" stroke-width="1.2607"/>
<line x1="883.809" y1="182.801" x2="883.809" y2="1350.21" stroke="#222020" stroke-width="1.2607"/>
<line x1="561.068" y1="182.801" x2="561.068" y2="1350.21" stroke="#222020" stroke-width="1.2607"/>
<line x1="1206.54" y1="182.801" x2="1206.54" y2="1350.21" stroke="#222020" stroke-width="1.2607"/>
<line x1="-51" y1="856.643" x2="1460.58" y2="856.643" stroke="#222020" stroke-width="1.2607"/>
<line x1="-51" y1="533.907" x2="1460.58" y2="533.907" stroke="#222020" stroke-width="1.2607"/>
<line x1="-51" y1="211.165" x2="1460.58" y2="211.165" stroke="#222020" stroke-width="1.2607"/>
<line x1="-51" y1="695.274" x2="1460.58" y2="695.274" stroke="#222020" stroke-width="1.2607"/>
<line x1="-51" y1="1018.01" x2="1460.58" y2="1018.01" stroke="#222020" stroke-width="1.2607"/>
<line x1="-51" y1="372.536" x2="1460.58" y2="372.536" stroke="#222020" stroke-width="1.2607"/>
<line x1="-51" y1="775.959" x2="1460.58" y2="775.959" stroke="#222020" stroke-width="1.2607"/>
<line x1="-51" y1="453.221" x2="1460.58" y2="453.221" stroke="#222020" stroke-width="1.2607"/>
<line x1="-51" y1="130.483" x2="1460.58" y2="130.483" stroke="#222020" stroke-width="1.2607"/>
<line x1="-51" y1="614.588" x2="1460.58" y2="614.588" stroke="#222020" stroke-width="1.2607"/>
<line x1="-51" y1="937.329" x2="1460.58" y2="937.329" stroke="#222020" stroke-width="1.2607"/>
<line x1="-51" y1="291.85" x2="1460.58" y2="291.85" stroke="#222020" stroke-width="1.2607"/>
</g>
<rect x="319" y="534" width="80.2262" height="81.3723" fill="#E3F6F3"/>
<rect x="1367" y="777" width="80.2262" height="80.2262" fill="#E3F6F3"/>
<rect x="77" y="777" width="80.2262" height="80.2262" fill="#E3F6F3"/>
<defs>
<clipPath id="clip0_728_3365">
<rect width="1775" height="1042" fill="white" transform="translate(-51)"/>
</clipPath>
</defs>
</svg>
