<svg width="16" height="20" viewBox="0 0 16 20" fill="none" xmlns="http://www.w3.org/2000/svg">
<path d="M7.99969 0L10.0859 1.08L12.4084 1.4325L13.4609 3.5325L15.1322 5.1825L14.7497 7.5L15.1322 9.8175L13.4609 11.4675L12.4084 13.5675L10.0859 13.92L7.99969 15L5.91344 13.92L3.59094 13.5675L2.53844 11.4675L0.867188 9.8175L1.24969 7.5L0.867188 5.1825L2.53844 3.5325L3.59094 1.4325L5.91344 1.08L7.99969 0Z" fill="#9FD6E8"/>
<path d="M3 14.7424V19.9999L8 18.7499L13 19.9999V14.7424L10.4775 15.1249L8 16.4074L5.5225 15.1249L3 14.7424Z" fill="#029ECF"/>
</svg>
