<svg width="18" height="16" viewBox="0 0 18 16" fill="none" xmlns="http://www.w3.org/2000/svg">
<path d="M13.1665 15.0832H4.83317C2.33317 15.0832 0.666504 13.8332 0.666504 10.9165V5.08317C0.666504 2.1665 2.33317 0.916504 4.83317 0.916504H13.1665C15.6665 0.916504 17.3332 2.1665 17.3332 5.08317V10.9165C17.3332 13.8332 15.6665 15.0832 13.1665 15.0832Z" fill="#C4E1DD"/>
<path d="M9 10.5C10.3807 10.5 11.5 9.38075 11.5 8C11.5 6.61925 10.3807 5.5 9 5.5C7.61925 5.5 6.5 6.61925 6.5 8C6.5 9.38075 7.61925 10.5 9 10.5Z" fill="#39988B"/>
<path d="M14.8335 4.45825H12.3335C11.9918 4.45825 11.7085 4.17492 11.7085 3.83325C11.7085 3.49159 11.9918 3.20825 12.3335 3.20825H14.8335C15.1752 3.20825 15.4585 3.49159 15.4585 3.83325C15.4585 4.17492 15.1752 4.45825 14.8335 4.45825Z" fill="#39988B"/>
<path d="M5.6665 12.7915H3.1665C2.82484 12.7915 2.5415 12.5082 2.5415 12.1665C2.5415 11.8248 2.82484 11.5415 3.1665 11.5415H5.6665C6.00817 11.5415 6.2915 11.8248 6.2915 12.1665C6.2915 12.5082 6.00817 12.7915 5.6665 12.7915Z" fill="#39988B"/>
</svg>
