<svg width="20" height="20" viewBox="0 0 20 20" fill="none" xmlns="http://www.w3.org/2000/svg">
<path d="M18.3334 17.7083H1.66675C1.32508 17.7083 1.04175 17.9916 1.04175 18.3333C1.04175 18.6749 1.32508 18.9583 1.66675 18.9583H18.3334C18.6751 18.9583 18.9584 18.6749 18.9584 18.3333C18.9584 17.9916 18.6751 17.7083 18.3334 17.7083Z" fill="#39988B"/>
<path d="M14.1667 1.66675H5.83333C3.33333 1.66675 2.5 3.15841 2.5 5.00008V18.3334H17.5V5.00008C17.5 3.15841 16.6667 1.66675 14.1667 1.66675Z" fill="#C4E1DD"/>
<path d="M11.7169 12.5H8.27527C7.85027 12.5 7.49194 12.85 7.49194 13.2833V18.3333H12.4919V13.2833C12.5003 12.85 12.1503 12.5 11.7169 12.5Z" fill="#39988B"/>
</svg>
