<svg width="20" height="20" viewBox="0 0 20 20" fill="none" xmlns="http://www.w3.org/2000/svg">
<path d="M10.5 19C15.1944 19 19 15.1944 19 10.5C19 5.80558 15.1944 2 10.5 2C5.80558 2 2 5.80558 2 10.5C2 15.1944 5.80558 19 10.5 19Z" fill="#00823C" fill-opacity="0.19"/>
<path d="M10.4997 4.17226C10.4997 4.0376 10.4997 3.97026 10.5433 3.92843C10.587 3.8866 10.6523 3.8894 10.7829 3.895C11.8451 3.94054 12.8821 4.24169 13.8052 4.77465C14.8102 5.3549 15.6448 6.18947 16.2251 7.19449C16.8054 8.1995 17.1108 9.33951 17.1108 10.5C17.1108 11.6606 16.8054 12.8006 16.2251 13.8056C15.6448 14.8106 14.8102 15.6452 13.8052 16.2255C12.8003 16.8057 11.6602 17.1112 10.4997 17.1112C9.33915 17.1112 8.19914 16.8057 7.19413 16.2255C6.27102 15.6925 5.4917 14.945 4.92118 14.0478C4.85102 13.9375 4.81594 13.8824 4.83034 13.8236C4.84473 13.7649 4.90304 13.7313 5.01967 13.6639L10.358 10.5818C10.4272 10.5419 10.4617 10.522 10.4807 10.4891C10.4997 10.4562 10.4997 10.4163 10.4997 10.3365V4.17226Z" fill="#39988B"/>
</svg>
