<svg width="16" height="18" viewBox="0 0 16 18" fill="none" xmlns="http://www.w3.org/2000/svg">
<path d="M16 11.9901V13.2281C16 13.9707 15.6613 14.6056 15.1911 15.1046C14.7262 15.5991 14.0951 16.0023 13.3849 16.3216C11.9609 16.9602 10.0569 17.3333 8 17.3333C5.94311 17.3333 4.03911 16.9611 2.61511 16.3216C1.90489 16.0023 1.27378 15.5991 0.808889 15.1046C0.377778 14.6485 0.0577777 14.0756 0.00711102 13.4114L0 13.2281V11.9901C0.413037 12.2322 0.855704 12.4435 1.328 12.6241C3.13244 13.3093 5.49244 13.6915 8 13.6915C10.5076 13.6915 12.8676 13.3093 14.672 12.6241C15.0264 12.4891 15.3639 12.3362 15.6844 12.1653L16 11.9901ZM8 0C10.0569 0 11.9609 0.372211 13.3849 1.01172C14.0951 1.33102 14.7262 1.73425 15.1911 2.2287C15.6222 2.68484 15.9422 3.25775 15.9929 3.92189L16 4.10526V4.78765C15.41 5.25557 14.7542 5.62898 14.0551 5.89516C12.4951 6.48814 10.3538 6.85032 8 6.85032C5.64711 6.85032 3.50578 6.48814 1.94489 5.89516C1.34399 5.66604 0.774756 5.35752 0.251556 4.9774L0 4.78765V4.10526C0 3.36267 0.338667 2.72772 0.808889 2.2287C1.27378 1.73425 1.90489 1.33102 2.61511 1.01172C4.03911 0.373123 5.94311 0 8 0Z" fill="#C4E1DD"/>
<path d="M0 6.66675C0.413037 6.93047 0.855704 7.16072 1.328 7.35752C3.13244 8.10395 5.49244 8.52039 8 8.52039C10.5076 8.52039 12.8676 8.10395 14.672 7.35752C15.1309 7.1685 15.5751 6.93746 16 6.66675V9.75285C15.41 10.2626 14.7542 10.6695 14.0551 10.9595C12.4951 11.6055 10.3538 12.0001 8 12.0001C5.64711 12.0001 3.50578 11.6055 1.94489 10.9595C1.24579 10.6695 0.590039 10.2626 0 9.75285V6.66675Z" fill="#39988B"/>
</svg>
