<svg width="20" height="20" viewBox="0 0 20 20" fill="none" xmlns="http://www.w3.org/2000/svg">
<path fill-rule="evenodd" clip-rule="evenodd" d="M15.833 9.16667C16.2535 9.16653 16.6585 9.32534 16.9668 9.61125C17.2751 9.89716 17.464 10.289 17.4955 10.7083L17.4997 10.8333V15.8333C17.4998 16.2538 17.341 16.6588 17.0551 16.9671C16.7692 17.2754 16.3773 17.4643 15.958 17.4958L15.833 17.5H12.4997C12.0792 17.5001 11.6742 17.3413 11.3659 17.0554C11.0576 16.7695 10.8687 16.3776 10.8372 15.9583L10.833 15.8333V10.8333C10.8329 10.4129 10.9917 10.0079 11.2776 9.69954C11.5635 9.39123 11.9554 9.20237 12.3747 9.17083L12.4997 9.16667H15.833ZM15.833 2.5C16.275 2.5 16.699 2.67559 17.0115 2.98816C17.3241 3.30072 17.4997 3.72464 17.4997 4.16667V5.83333C17.4997 6.27536 17.3241 6.69928 17.0115 7.01184C16.699 7.3244 16.275 7.5 15.833 7.5H12.4997C12.0576 7.5 11.6337 7.3244 11.3212 7.01184C11.0086 6.69928 10.833 6.27536 10.833 5.83333V4.16667C10.833 3.72464 11.0086 3.30072 11.3212 2.98816C11.6337 2.67559 12.0576 2.5 12.4997 2.5H15.833Z" fill="#90D6EC"/>
<path fill-rule="evenodd" clip-rule="evenodd" d="M7.5 2.5C7.94203 2.5 8.36595 2.67559 8.67851 2.98816C8.99107 3.30072 9.16667 3.72464 9.16667 4.16667V9.16667C9.16667 9.60869 8.99107 10.0326 8.67851 10.3452C8.36595 10.6577 7.94203 10.8333 7.5 10.8333H4.16667C3.72464 10.8333 3.30072 10.6577 2.98816 10.3452C2.67559 10.0326 2.5 9.60869 2.5 9.16667V4.16667C2.5 3.72464 2.67559 3.30072 2.98816 2.98816C3.30072 2.67559 3.72464 2.5 4.16667 2.5H7.5Z" fill="#029ECF"/>
<path fill-rule="evenodd" clip-rule="evenodd" d="M7.5 12.5C7.94203 12.5 8.36595 12.6756 8.67851 12.9882C8.99107 13.3007 9.16667 13.7246 9.16667 14.1667V15.8333C9.16667 16.2754 8.99107 16.6993 8.67851 17.0118C8.36595 17.3244 7.94203 17.5 7.5 17.5H4.16667C3.72464 17.5 3.30072 17.3244 2.98816 17.0118C2.67559 16.6993 2.5 16.2754 2.5 15.8333V14.1667C2.5 13.7246 2.67559 13.3007 2.98816 12.9882C3.30072 12.6756 3.72464 12.5 4.16667 12.5H7.5Z" fill="#90D6EC"/>
</svg>
