<svg width="18" height="18" viewBox="0 0 18 18" fill="none" xmlns="http://www.w3.org/2000/svg">
<path d="M8.99902 1.16699C13.3253 1.16699 16.8328 4.67379 16.833 9C16.833 13.3264 13.3254 16.834 8.99902 16.834C4.67282 16.8338 1.16602 13.3262 1.16602 9C1.16619 4.6739 4.67292 1.16717 8.99902 1.16699ZM9.51855 2.89746C8.62273 2.82142 7.72131 2.94346 6.87793 3.25488C6.03446 3.56638 5.26914 4.0591 4.6377 4.69922C4.09017 5.25427 3.65523 5.90845 3.35352 6.625H3.16602C2.86765 6.625 2.5811 6.7441 2.37012 6.95508C2.15942 7.16595 2.0411 7.4519 2.04102 7.75C2.04102 8.04829 2.15924 8.33494 2.37012 8.5459C2.51168 8.68746 2.6877 8.78647 2.87793 8.83691C2.87505 8.94565 2.87506 9.05435 2.87793 9.16309C2.68764 9.21351 2.51172 9.31348 2.37012 9.45508C2.15942 9.66595 2.0411 9.9519 2.04102 10.25C2.04102 10.5483 2.15924 10.8349 2.37012 11.0459C2.5811 11.2569 2.86765 11.375 3.16602 11.375H3.35254C3.65432 12.092 4.08984 12.7465 4.6377 13.3018C5.26927 13.9419 6.03432 14.4347 6.87793 14.7461C7.72159 15.0575 8.62348 15.1798 9.51953 15.1035C10.4117 15.0275 11.2755 14.7556 12.0518 14.3096L12.0527 14.3105C12.1842 14.2385 12.3004 14.1409 12.3936 14.0234C12.4867 13.9061 12.5554 13.7712 12.5957 13.627C12.636 13.4826 12.6468 13.3313 12.6279 13.1826C12.6091 13.034 12.5613 12.8904 12.4863 12.7607C12.4113 12.631 12.3109 12.5172 12.1914 12.4268C12.0719 12.3363 11.9353 12.2704 11.79 12.2334C11.6448 12.1964 11.493 12.1896 11.3447 12.2119C11.2338 12.2286 11.1261 12.2612 11.0254 12.3096L10.9365 12.3574C10.473 12.6251 9.95876 12.7944 9.42676 12.8535C8.89491 12.9126 8.35658 12.8604 7.8457 12.7012C7.3346 12.5418 6.8612 12.2779 6.45703 11.9268C6.26519 11.7601 6.09139 11.5748 5.93652 11.375H7.33301C7.63118 11.3749 7.91704 11.2567 8.12793 11.0459C8.33891 10.8349 8.45801 10.5484 8.45801 10.25C8.45792 9.95175 8.33883 9.66598 8.12793 9.45508C7.91703 9.24418 7.63126 9.12509 7.33301 9.125H5.12793C5.12676 9.08431 5.12383 9.04365 5.12402 9.00293V9C5.12403 8.95806 5.12665 8.91643 5.12793 8.875H7.33301C7.63118 8.87491 7.91704 8.7567 8.12793 8.5459C8.33891 8.33492 8.45801 8.04837 8.45801 7.75C8.45792 7.45175 8.33883 7.16598 8.12793 6.95508C7.91703 6.74418 7.63126 6.62509 7.33301 6.625H5.9375C6.09228 6.4254 6.26534 6.23978 6.45703 6.07324C6.8612 5.72214 7.3346 5.45917 7.8457 5.2998C8.35662 5.14055 8.89487 5.08835 9.42676 5.14746C9.95865 5.20661 10.4731 5.37499 10.9365 5.64258C11.0639 5.71685 11.2045 5.76615 11.3506 5.78613C11.4974 5.80619 11.6468 5.79661 11.79 5.75879C11.9335 5.72087 12.0687 5.65458 12.1865 5.56445C12.3042 5.47437 12.4034 5.36177 12.4775 5.2334C12.5516 5.10509 12.599 4.9633 12.6182 4.81641C12.6373 4.66927 12.6277 4.51915 12.5889 4.37598C12.55 4.23292 12.4824 4.09861 12.3916 3.98145C12.3012 3.86491 12.1886 3.76746 12.0605 3.69434H12.0615C11.2827 3.2452 10.4144 2.97351 9.51855 2.89746Z" fill="#90D6EC" stroke="#029ECF"/>
</svg>
