<svg width="225" height="51" viewBox="0 0 225 51" fill="none" xmlns="http://www.w3.org/2000/svg">
<path d="M20.0269 48.955C17.4217 50.2829 16.7851 50.4262 13.0839 50.5274C7.29593 50.6876 3.41761 49.2627 1.02739 46.0968L0.226433 45.0387L2.51127 43.0111C3.7675 41.8981 5.0153 40.9792 5.28088 40.9707C5.54646 40.9623 6.78162 41.4302 8.021 42.0077C11.7897 43.7614 15.765 43.2134 17.5313 40.6883C18.4166 39.4236 19.1964 36.9617 18.6189 37.2484C14.7153 39.2128 14.0998 39.373 11.0941 39.1791C3.97828 38.7196 -0.45227 33.2773 0.0367344 25.6008C0.395057 20.0531 3.07615 15.8165 7.46033 13.8773C9.78311 12.8487 14.9682 12.9626 17.1898 14.0923C18.9477 14.986 19.3398 15.0029 19.3398 14.1893C19.3398 13.6708 20.0944 13.5569 23.5891 13.5569H27.8341L27.6697 26.309C27.4842 40.6335 27.3072 41.6874 24.4954 45.3844C23.3361 46.9062 22.0968 47.8969 20.0269 48.955ZM212.505 40.5197C204.437 42.7581 197.165 36.4516 199.998 29.6688C201.502 26.0729 205.081 24.1591 210.937 23.8176C212.792 23.7122 214.735 23.5352 215.258 23.4298C216.548 23.1684 216.485 21.7689 215.144 20.892C213.652 19.9098 208.218 20.247 205.853 21.4653C204.909 21.9501 203.956 22.2199 203.728 22.0597C203.505 21.9037 202.607 20.892 201.734 19.8128L200.145 17.8484L201.553 16.7734C202.329 16.1832 204.095 15.1757 205.474 14.535C207.594 13.5527 208.673 13.3504 212.412 13.2155C216.164 13.0806 217.205 13.1944 219.246 13.9616C221.914 14.9692 223.503 16.5458 224.254 18.9444C224.549 19.8887 224.793 24.3951 224.874 30.2548L225 39.9927L221.16 40.2414C219.048 40.3805 217.163 40.3974 216.974 40.2794C216.784 40.1613 216.628 39.5838 216.628 38.9978V37.9313L215.351 39.0063C214.647 39.6007 213.365 40.2794 212.505 40.5197ZM67.2327 39.6976C60.0073 43.3609 51.3485 38.5594 52.4108 31.4773C53.0474 27.2322 57.0016 24.2771 62.6125 23.8513C68.3836 23.4171 69.0834 23.2612 69.0834 22.4138C69.0834 21.9796 68.763 21.3051 68.3752 20.9173C67.3634 19.9056 61.1328 20.2639 58.7721 21.4653C57.8573 21.9333 56.9088 22.2326 56.6643 22.1272C56.424 22.026 55.5051 21.0058 54.6198 19.8634L53.0137 17.7851L55.6442 16.0863C59.1684 13.8057 61.6555 13.1354 66.5245 13.1396C69.8759 13.1438 70.9213 13.3124 72.7003 14.1387C73.8764 14.6909 75.2423 15.6479 75.7313 16.2718C77.506 18.5271 77.7168 20.0152 77.721 30.3517L77.7253 40.1908H73.9313C70.4028 40.1951 70.1288 40.136 70.0023 39.314C69.9265 38.825 69.8337 38.433 69.7916 38.433C69.7494 38.4372 68.5986 39.0063 67.2327 39.6976ZM90.6755 32.6323L90.4689 40.115H82.1516V13.5569H90.5279L90.7935 16.1284L92.2521 15.0493C94.1575 13.637 96.0545 13.1396 99.5534 13.1396C102.825 13.1354 104.637 13.7762 106.269 15.513C108.436 17.8231 108.71 19.4714 108.71 30.2632V40.115H100.278V32.0928C100.278 23.5605 99.937 21.6677 98.2339 20.7571C96.8428 20.011 94.5917 20.2217 93.327 21.2166C91.2825 22.827 90.8989 24.4626 90.6755 32.6323ZM152.176 40.1192C148.787 40.1192 144.786 40.1866 143.277 40.2667C141.768 40.3468 138.973 40.3384 137.059 40.2499L133.581 40.0812V34.5631L139.694 27.6706C143.054 23.8808 145.807 20.6728 145.807 20.5421C145.807 20.4072 143.151 20.3018 139.905 20.3018H134.003V13.5569H158.032V18.2194L151.603 25.4153C148.066 29.3695 145.111 32.7799 145.035 32.9907C144.955 33.2057 147.826 33.3701 151.696 33.3701H158.495L158.415 36.7425L158.335 40.115L152.176 40.1192ZM129.682 40.0686C128.565 40.4859 124.286 40.9749 123.675 40.7557C123.443 40.6756 122.537 40.4859 121.664 40.3384C119.767 40.0222 117.242 37.9355 116.445 36.0259C116.045 35.0605 115.876 32.5565 115.876 27.4809V20.3018H112.082V13.6033L113.874 13.4768L115.665 13.3462L115.91 5.96894H124.273L124.518 13.3462L127.574 13.4684L130.631 13.5949V20.3018H124.307V25.5713C124.307 32 124.611 32.527 128.312 32.527H130.631V36.1186C130.631 39.4615 130.563 39.7398 129.682 40.0686ZM196.182 4.28271V40.0644L192.034 40.1951C189.754 40.2667 187.81 40.2456 187.713 40.1487C187.621 40.0517 187.541 31.9452 187.541 22.1272V4.28271H191.862H196.182ZM40.915 33.1888L40.7843 40.115H32.408V13.5569H40.8391V18.818L41.9267 17.2919C43.1998 15.4961 46.273 13.7087 48.7686 13.3082L50.5349 13.0258V21.4569L48.0435 21.7393C45.3498 22.0429 43.3853 23.1178 41.931 25.0738C41.1342 26.1446 41.0373 26.9413 40.915 33.1888ZM182.903 4.28271V40.115H174.472V4.28271H182.903ZM170.493 26.836L170.468 40.115H161.826V13.5569H170.518L170.493 26.836ZM12.3504 31.4309C15.0399 32.3668 17.2868 31.4014 18.3491 28.851C19.4241 26.2879 18.9182 23.16 17.1308 21.2503C16.4268 20.4958 15.7818 20.3018 14.0029 20.3018C12.1396 20.3018 11.541 20.5 10.4197 21.5033C9.24773 22.5529 9.04959 23.0335 8.8894 25.2762C8.73343 27.3924 8.86411 28.1048 9.63134 29.34C10.1372 30.1662 10.5883 30.8449 10.6262 30.8492C10.6641 30.8492 11.444 31.1105 12.3504 31.4309ZM61.8115 33.3363C63.0635 34.0656 66.2252 33.8591 67.7133 32.9527C68.8937 32.2319 69.0834 31.882 69.0834 30.4192C69.0834 28.8763 68.9948 28.7372 68.1349 28.91C67.6121 29.0154 66.1114 29.2093 64.8004 29.34C63.4851 29.4665 62.1108 29.6899 61.7441 29.8332C60.7998 30.1915 60.8504 32.7757 61.8115 33.3363ZM209.883 33.6525C211.595 34.2258 212.918 34.0108 214.836 32.86C215.97 32.1771 216.206 31.7766 216.206 30.5414V29.0449L212.859 29.2388C209.002 29.4622 208.096 29.9808 208.281 31.8567C208.387 32.9232 208.673 33.2478 209.883 33.6525Z" fill="#EEEDED"/>
<path d="M170.067 9.57302C167.293 12.3426 161.628 8.86059 161.084 4.05063C160.907 2.45715 161.029 1.96815 161.843 1.10396C163.36 -0.5106 165.835 -0.341978 168.018 1.52973C171.113 4.1771 171.994 7.64229 170.067 9.57302Z" fill="#39988B"/>
</svg>
