<svg width="20" height="20" viewBox="0 0 20 20" fill="none" xmlns="http://www.w3.org/2000/svg">
<path opacity="0.4" d="M14.166 17.0837H5.83268C3.33268 17.0837 1.66602 15.8337 1.66602 12.917V7.08366C1.66602 4.16699 3.33268 2.91699 5.83268 2.91699H14.166C16.666 2.91699 18.3327 4.16699 18.3327 7.08366V12.917C18.3327 15.8337 16.666 17.0837 14.166 17.0837Z" fill="#029ECF"/>
<path d="M15.0625 6.625C14.5446 6.625 14.125 7.04481 14.125 7.5625C14.125 7.66881 14.1466 7.76913 14.179 7.86438L11.8937 9.83219C11.7334 9.7045 11.5334 9.625 11.3125 9.625C11.0577 9.625 10.8273 9.72738 10.6585 9.89237L8.86844 8.99612C8.83357 8.50994 8.43251 8.125 7.9375 8.125C7.41982 8.125 7 8.54481 7 9.0625C7 9.20425 7.03375 9.33719 7.09 9.45756L5.26487 11.5621C5.1625 11.5238 5.05319 11.5 4.9375 11.5C4.41981 11.5 4 11.9198 4 12.4375C4 12.9552 4.41981 13.375 4.9375 13.375C5.45519 13.375 5.875 12.9552 5.875 12.4375C5.875 12.3128 5.8495 12.1941 5.80525 12.0854L7.66 9.9535C7.74831 9.98088 7.84019 10 7.9375 10C8.21031 10 8.45368 9.8815 8.62505 9.69531L10.3759 10.5732C10.3821 11.0858 10.7984 11.5 11.3125 11.5C11.8304 11.5 12.25 11.0802 12.25 10.5625C12.25 10.5458 12.2461 10.5303 12.2451 10.5138L14.6838 8.41881C14.7998 8.47019 14.9273 8.5 15.0625 8.5C15.5804 8.5 16 8.08037 16 7.5625C16 7.04481 15.5804 6.625 15.0625 6.625Z" fill="#029ECF"/>
</svg>
