<svg width="20" height="20" viewBox="0 0 20 20" fill="none" xmlns="http://www.w3.org/2000/svg">
<path d="M18.9997 10.4999C18.9997 15.1942 15.1942 18.9997 10.4999 18.9997C5.80552 18.9997 2 15.1942 2 10.4999C2 5.80552 5.80552 2 10.4999 2C15.1942 2 18.9997 5.80552 18.9997 10.4999Z" fill="#C4E1DD"/>
<path d="M18.5958 13.0969C18.8583 12.2783 18.9999 11.4055 18.9999 10.4997C18.9999 8.83968 18.5241 7.29084 17.7013 5.9821C17.6666 6.00218 17.6263 6.01367 17.5833 6.01367H16.0288C15.1922 6.01367 14.5139 6.69194 14.5139 7.52863C14.5139 8.28132 14.0886 8.96944 13.4154 9.30604L13.3393 9.3441C12.741 9.6432 12.0368 9.6432 11.4386 9.3441L11.3624 9.30604C10.6892 8.96944 10.2639 8.28132 10.2639 7.52863C10.2639 6.69194 9.58566 6.01367 8.74899 6.01367H8.61122C7.43764 6.01367 6.48626 5.06229 6.48626 3.88871V3.00537C4.14588 4.26146 2.46189 6.58181 2.08154 9.31917H4.83351C6.00709 9.31917 6.95847 10.2706 6.95847 11.4441C6.95847 12.3569 7.69843 13.0969 8.61122 13.0969C9.78484 13.0969 10.7362 14.0483 10.7362 15.2219V18.9964C11.9134 18.9642 13.0309 18.6928 14.0417 18.2288V15.2219C14.0417 14.0483 14.9931 13.0969 16.1666 13.0969H18.5958Z" fill="#39988B"/>
</svg>
