<svg width="17" height="17" viewBox="0 0 17 17" fill="none" xmlns="http://www.w3.org/2000/svg">
<path d="M16.9997 8.49987C16.9997 13.1942 13.1942 16.9997 8.49986 16.9997C3.80552 16.9997 0 13.1942 0 8.49987C0 3.80552 3.80552 0 8.49986 0C13.1942 0 16.9997 3.80552 16.9997 8.49987Z" fill="#9FD6E8"/>
<path d="M16.5953 11.0969C16.8578 10.2783 16.9994 9.40551 16.9994 8.4997C16.9994 6.83968 16.5236 5.29084 15.7008 3.9821C15.6661 4.00218 15.6259 4.01367 15.5828 4.01367H14.0284C13.1917 4.01367 12.5134 4.69194 12.5134 5.52863C12.5134 6.28132 12.0881 6.96944 11.4149 7.30604L11.3388 7.3441C10.7405 7.6432 10.0363 7.6432 9.43814 7.3441L9.36193 7.30604C8.68874 6.96944 8.26346 6.28132 8.26346 5.52863C8.26346 4.69194 7.58517 4.01367 6.7485 4.01367H6.61074C5.43715 4.01367 4.48577 3.06229 4.48577 1.88871V1.00537C2.14539 2.26146 0.461405 4.58181 0.0810547 7.31917H2.83302C4.0066 7.31917 4.95798 8.27058 4.95798 9.44413C4.95798 10.3569 5.69795 11.0969 6.61074 11.0969C7.78435 11.0969 8.73567 12.0483 8.73567 13.2219V16.9964C9.91291 16.9642 11.0304 16.6928 12.0412 16.2288V13.2219C12.0412 12.0483 12.9926 11.0969 14.1661 11.0969H16.5953Z" fill="#029ECF"/>
</svg>
