<svg width="20" height="20" viewBox="0 0 20 20" fill="none" xmlns="http://www.w3.org/2000/svg">
<path d="M18.3337 17.7083H1.66699C1.32533 17.7083 1.04199 17.9916 1.04199 18.3333C1.04199 18.6749 1.32533 18.9583 1.66699 18.9583H18.3337C18.6753 18.9583 18.9587 18.6749 18.9587 18.3333C18.9587 17.9916 18.6753 17.7083 18.3337 17.7083Z" fill="#029ECF"/>
<path opacity="0.4" d="M14.1667 1.66675H5.83333C3.33333 1.66675 2.5 3.15841 2.5 5.00008V18.3334H17.5V5.00008C17.5 3.15841 16.6667 1.66675 14.1667 1.66675Z" fill="#029ECF"/>
<path d="M11.7172 12.5H8.27551C7.85051 12.5 7.49219 12.85 7.49219 13.2833V18.3333H12.4922V13.2833C12.5005 12.85 12.1505 12.5 11.7172 12.5Z" fill="#029ECF"/>
</svg>
