<svg width="17" height="17" viewBox="0 0 17 17" fill="none" xmlns="http://www.w3.org/2000/svg">
<path fill-rule="evenodd" clip-rule="evenodd" d="M8.50025 1.41675C5.57271 1.41675 4.10859 1.41675 3.68217 2.33758C3.64547 2.41689 3.61469 2.49881 3.59009 2.58266C3.29967 3.56512 4.33525 4.70412 6.405 6.98141L7.79192 8.50008H9.20859L10.5955 6.98212C12.6653 4.70412 13.7001 3.56512 13.4104 2.58337C13.3859 2.49904 13.3551 2.41664 13.3183 2.33687C12.8919 1.41675 11.4278 1.41675 8.50025 1.41675Z" fill="#029ECF"/>
<path d="M3.68198 14.6625C4.1084 15.5833 5.57253 15.5833 8.50007 15.5833C11.4276 15.5833 12.8917 15.5833 13.3182 14.6625C13.3549 14.5832 13.3856 14.5013 13.4102 14.4174C13.7007 13.435 12.6651 12.296 10.5953 10.0187L9.2084 8.5H7.79173L6.40482 10.018C4.33507 12.296 3.30019 13.435 3.5899 14.4167C3.61446 14.5017 3.64515 14.5832 3.68198 14.6625Z" fill="#90D6EC"/>
</svg>
