<svg width="20" height="20" viewBox="0 0 20 20" fill="none" xmlns="http://www.w3.org/2000/svg">
<path d="M5.00098 2.16699H10.334V6.66699C10.334 7.02924 10.4625 7.35606 10.7207 7.61426C10.9786 7.87218 11.3051 7.99952 11.667 7.99902V8H16.167V16.667C16.167 16.9918 16.0575 17.2575 15.8242 17.4912C15.5914 17.7244 15.326 17.8344 15.001 17.834H5.00098C4.67629 17.834 4.41068 17.7241 4.17773 17.4912C3.97392 17.2874 3.86345 17.0583 3.83887 16.7861L3.83398 16.666V3.33398C3.83398 3.00955 3.94342 2.74376 4.17676 2.51074C4.38159 2.30626 4.61127 2.19628 4.88281 2.17188L5.00098 2.16699ZM10.9795 2.16699C11.1374 2.16699 11.2848 2.19606 11.4248 2.25391C11.566 2.31227 11.687 2.39373 11.792 2.49902L11.793 2.5L15.835 6.54102C15.9407 6.64672 16.0216 6.76881 16.0801 6.91016C16.138 7.05029 16.167 7.19728 16.167 7.35449V7.95898L15.3545 7.14648L11.1875 2.98047L10.374 2.16699H10.9795Z" fill="#90D6EC" stroke="#029ECF"/>
</svg>
